<svg width="730" height="405" viewBox="0 0 730 405" fill="none" xmlns="http://www.w3.org/2000/svg">
<path d="M68.47 94.27C68.2882 94.105 68.1421 93.9045 68.0406 93.681C67.9392 93.4574 67.8845 93.2154 67.88 92.97C67.8693 92.697 67.8997 92.4239 67.97 92.16L89.12 34.38C89.2963 33.6654 89.7086 33.0312 90.29 32.58C90.9631 32.0762 91.7902 31.8217 92.63 31.86H106C106.84 31.8217 107.667 32.0762 108.34 32.58C108.921 33.0312 109.334 33.6654 109.51 34.38L130.57 92.16L130.75 92.97C130.747 93.2148 130.695 93.4565 130.595 93.6801C130.495 93.9037 130.35 94.1045 130.17 94.27C129.989 94.4584 129.772 94.6079 129.531 94.7093C129.29 94.8108 129.031 94.862 128.77 94.86H117.65C117.028 94.911 116.407 94.7527 115.885 94.4102C115.363 94.0678 114.971 93.5609 114.77 92.97L111.26 83.7899H87.26L83.84 92.97C83.6254 93.5765 83.2126 94.093 82.6683 94.4359C82.1239 94.7789 81.4798 94.9283 80.84 94.86H69.77C69.5246 94.8555 69.2826 94.8008 69.059 94.6993C68.8355 94.5979 68.635 94.4518 68.47 94.27ZM107.66 70.83L99.29 47.07L90.92 70.83H107.66Z" fill="#27255E"/>
<path d="M143 89.5501C138.227 85.4101 135.84 79.1701 135.84 70.8301V34.1101C135.831 33.8072 135.887 33.5058 136.004 33.2264C136.122 32.9469 136.298 32.6958 136.52 32.4901C136.94 32.0811 137.504 31.8547 138.09 31.8601H149.7C150.318 31.8434 150.917 32.0696 151.37 32.4901C151.591 32.6963 151.766 32.9477 151.881 33.2272C151.997 33.5067 152.051 33.8078 152.04 34.1101V70.7401C152.04 74.6401 152.957 77.5634 154.79 79.5101C156.623 81.4568 159.29 82.4334 162.79 82.4401C166.21 82.4401 168.85 81.4401 170.71 79.4401C172.57 77.4401 173.5 74.5301 173.5 70.7101V34.1101C173.491 33.8072 173.547 33.5058 173.664 33.2264C173.782 32.9469 173.957 32.6958 174.18 32.4901C174.6 32.0811 175.164 31.8547 175.75 31.8601H187.45C187.749 31.8474 188.047 31.8969 188.326 32.0054C188.605 32.114 188.858 32.2793 189.069 32.4908C189.281 32.7023 189.446 32.9555 189.555 33.2342C189.663 33.513 189.713 33.8112 189.7 34.1101V70.8301C189.7 79.1701 187.317 85.4101 182.55 89.5501C177.783 93.6901 171.227 95.7601 162.88 95.7601C154.387 95.7601 147.76 93.6901 143 89.5501Z" fill="#27255E"/>
<path d="M216.16 94.1801C215.945 93.9789 215.774 93.7357 215.657 93.4657C215.54 93.1956 215.48 92.9044 215.48 92.6101V45.9901H199.48C198.89 45.9702 198.329 45.7267 197.911 45.309C197.493 44.8913 197.25 44.3305 197.23 43.7401V34.1101C197.221 33.8072 197.277 33.5058 197.394 33.2264C197.512 32.9469 197.687 32.6958 197.91 32.4901C198.117 32.2871 198.363 32.127 198.632 32.0189C198.902 31.9108 199.19 31.8569 199.48 31.8601H247.9C248.199 31.8474 248.497 31.8969 248.776 32.0054C249.055 32.114 249.308 32.2793 249.519 32.4908C249.731 32.7023 249.896 32.9555 250.005 33.2342C250.113 33.513 250.163 33.8112 250.15 34.1101V43.7401C250.163 44.039 250.113 44.3372 250.005 44.616C249.896 44.8947 249.731 45.1479 249.519 45.3594C249.308 45.571 249.055 45.7362 248.776 45.8448C248.497 45.9534 248.199 46.0029 247.9 45.9901H231.9V92.6101C231.905 93.1961 231.679 93.7604 231.27 94.1801C231.064 94.4027 230.813 94.5785 230.534 94.6958C230.254 94.8131 229.953 94.8692 229.65 94.8601H217.73C217.436 94.8603 217.144 94.8 216.874 94.683C216.604 94.566 216.361 94.3949 216.16 94.1801V94.1801Z" fill="#27255E"/>
<path d="M263.09 89.55C258.23 85.41 255.65 79.32 255.35 71.28C255.29 69.54 255.26 66.96 255.26 63.54C255.26 60.12 255.29 57.51 255.35 55.71C255.65 47.79 258.277 41.6833 263.23 37.39C268.183 33.0966 274.797 30.9533 283.07 30.96C291.35 30.96 297.98 33.1033 302.96 37.39C307.94 41.6766 310.55 47.7833 310.79 55.71C310.91 59.19 310.97 61.8 310.97 63.54C310.97 65.28 310.91 67.86 310.79 71.28C310.49 79.32 307.91 85.41 303.05 89.55C298.19 93.69 291.523 95.76 283.05 95.76C274.603 95.76 267.95 93.69 263.09 89.55ZM291 79.83C292.94 77.83 293.973 74.8 294.1 70.74C294.22 67.26 294.28 64.8 294.28 63.36C294.28 61.8 294.22 59.34 294.1 55.98C293.98 51.9 292.93 48.87 290.95 46.89C289.918 45.8832 288.691 45.0979 287.345 44.582C285.998 44.0661 284.561 43.8307 283.12 43.89C281.686 43.8268 280.255 44.0607 278.917 44.577C277.578 45.0932 276.36 45.8807 275.34 46.89C273.38 48.89 272.313 51.92 272.14 55.98C272.047 57.66 272 60.12 272 63.36C272 66.6 272.03 69.06 272.09 70.74C272.27 74.82 273.32 77.85 275.24 79.83C276.265 80.8461 277.491 81.6376 278.839 82.1541C280.187 82.6705 281.628 82.9007 283.07 82.83C284.527 82.905 285.984 82.6771 287.349 82.1608C288.714 81.6444 289.957 80.8508 291 79.83V79.83Z" fill="#27255E"/>
<path d="M322.08 94.1799C321.867 93.9782 321.697 93.7347 321.582 93.4646C321.467 93.1945 321.408 92.9036 321.41 92.6099V34.1099C321.399 33.8077 321.453 33.5066 321.569 33.2271C321.684 32.9476 321.859 32.6962 322.08 32.4899C322.504 32.0813 323.071 31.8551 323.66 31.8599H348.86C356.54 31.8599 362.583 33.6299 366.99 37.1699C371.397 40.7099 373.603 45.8699 373.61 52.6499C373.61 59.3699 371.42 64.4233 367.04 67.8099C362.66 71.1966 356.6 72.8933 348.86 72.8999H338.15V92.6099C338.159 92.9129 338.103 93.2142 337.986 93.4937C337.868 93.7732 337.693 94.0242 337.47 94.2299C337.021 94.6499 336.425 94.8762 335.81 94.8599H323.66C323.364 94.8603 323.072 94.8001 322.8 94.6832C322.528 94.5662 322.283 94.395 322.08 94.1799V94.1799ZM348.41 60.4999C350.657 60.6334 352.873 59.9198 354.62 58.4999C355.408 57.7228 356.017 56.7836 356.405 55.7476C356.794 54.7115 356.953 53.6034 356.87 52.4999C356.923 51.4254 356.762 50.351 356.399 49.3385C356.035 48.326 355.475 47.3954 354.75 46.5999C353.337 45.1333 351.223 44.3999 348.41 44.3999H337.88V60.4999H348.41Z" fill="#27255E"/>
<path d="M373 94.27C372.82 94.1045 372.675 93.9037 372.575 93.6801C372.476 93.4565 372.423 93.2148 372.42 92.97C372.409 92.697 372.44 92.4239 372.51 92.16L393.66 34.38C393.836 33.6654 394.249 33.0312 394.83 32.58C395.503 32.0762 396.33 31.8217 397.17 31.86H410.49C411.33 31.8217 412.157 32.0762 412.83 32.58C413.411 33.0312 413.824 33.6654 414 34.38L435.06 92.16L435.24 92.97C435.236 93.2154 435.181 93.4574 435.079 93.681C434.978 93.9045 434.832 94.105 434.65 94.27C434.471 94.4581 434.255 94.6075 434.016 94.709C433.777 94.8104 433.52 94.8618 433.26 94.86H422.21C421.588 94.911 420.967 94.7527 420.445 94.4102C419.923 94.0678 419.531 93.5609 419.33 92.97L415.82 83.7899H391.82L388.4 92.97C388.185 93.5765 387.773 94.093 387.228 94.4359C386.684 94.7789 386.04 94.9283 385.4 94.86H374.33C374.08 94.8584 373.832 94.8052 373.604 94.7036C373.375 94.6021 373.169 94.4545 373 94.27V94.27ZM412.2 70.83L403.83 47.07L395.46 70.83H412.2Z" fill="#27255E"/>
<path d="M443 94.1799C442.787 93.9782 442.617 93.7347 442.502 93.4646C442.387 93.1945 442.328 92.9036 442.33 92.61V34.11C442.321 33.8093 442.376 33.5102 442.491 33.2325C442.607 32.9548 442.78 32.7051 443 32.5C443.424 32.0913 443.991 31.8651 444.58 31.8699H469.1C476.96 31.8699 483.094 33.6533 487.5 37.22C491.907 40.7866 494.114 45.8433 494.12 52.39C494.228 56.1814 493.182 59.9161 491.12 63.1C489.087 66.0822 486.246 68.4236 482.93 69.85L495.26 91.99C495.427 92.2976 495.52 92.6401 495.53 92.99C495.504 93.4826 495.296 93.9482 494.947 94.297C494.598 94.6459 494.133 94.8535 493.64 94.88H481.64C480.847 94.9162 480.063 94.7006 479.401 94.2641C478.738 93.8276 478.23 93.1926 477.95 92.45L467.69 72.6499H458.51V92.6499C458.519 92.9529 458.463 93.2543 458.346 93.5337C458.229 93.8132 458.053 94.0642 457.83 94.27C457.381 94.6899 456.785 94.9162 456.17 94.8999H444.62C444.315 94.9007 444.012 94.837 443.733 94.7129C443.454 94.5889 443.204 94.4072 443 94.1799ZM468.88 59.85C471.64 59.85 473.74 59.1833 475.18 57.85C475.918 57.1199 476.492 56.2412 476.865 55.2723C477.237 54.3034 477.399 53.2663 477.34 52.2299C477.393 51.1826 477.232 50.1356 476.867 49.1523C476.503 48.169 475.943 47.27 475.22 46.5099C473.814 45.1033 471.7 44.3999 468.88 44.3999H458.57V59.88L468.88 59.85Z" fill="#27255E"/>
<path d="M518.46 94.1801C518.247 93.9784 518.077 93.7349 517.962 93.4648C517.846 93.1947 517.788 92.9038 517.79 92.6101V45.9901H501.79C501.2 45.9702 500.639 45.7267 500.221 45.309C499.803 44.8913 499.56 44.3305 499.54 43.7401V34.1101C499.531 33.8072 499.587 33.5058 499.704 33.2264C499.822 32.9469 499.997 32.6958 500.22 32.4901C500.427 32.2871 500.673 32.127 500.942 32.0189C501.212 31.9108 501.5 31.8569 501.79 31.8601H550.21C550.509 31.8474 550.807 31.8969 551.086 32.0054C551.365 32.114 551.618 32.2793 551.829 32.4908C552.041 32.7023 552.206 32.9555 552.315 33.2342C552.423 33.513 552.473 33.8112 552.46 34.1101V43.7401C552.473 44.039 552.423 44.3372 552.315 44.616C552.206 44.8947 552.041 45.1479 551.829 45.3594C551.618 45.571 551.365 45.7362 551.086 45.8448C550.807 45.9534 550.509 46.0029 550.21 45.9901H534.21V92.6101C534.215 93.1961 533.989 93.7604 533.58 94.1801C533.374 94.4027 533.123 94.5785 532.844 94.6958C532.564 94.8131 532.263 94.8692 531.96 94.8601H520C519.711 94.854 519.426 94.7907 519.162 94.674C518.898 94.5573 518.659 94.3894 518.46 94.1801V94.1801Z" fill="#27255E"/>
<path d="M561.3 94.1801C561.086 93.9784 560.917 93.7349 560.801 93.4648C560.686 93.1947 560.628 92.9038 560.63 92.6101V34.1101C560.619 33.8078 560.673 33.5067 560.789 33.2272C560.904 32.9477 561.079 32.6963 561.3 32.4901C561.724 32.0815 562.291 31.8553 562.88 31.8601H604.88C605.179 31.8474 605.477 31.8969 605.756 32.0054C606.034 32.114 606.288 32.2793 606.499 32.4908C606.711 32.7023 606.876 32.9555 606.984 33.2342C607.093 33.513 607.143 33.8112 607.13 34.1101V42.5701C607.135 43.1561 606.909 43.7204 606.5 44.1401C606.294 44.3627 606.043 44.5385 605.764 44.6558C605.484 44.7731 605.183 44.8292 604.88 44.8201H576.2V56.9701H602.93C603.232 56.9592 603.533 57.0133 603.813 57.1289C604.092 57.2445 604.344 57.4188 604.55 57.6401C604.97 58.0928 605.197 58.6924 605.18 59.3101V67.1401C605.185 67.7261 604.959 68.2904 604.55 68.7101C604.344 68.9327 604.093 69.1085 603.814 69.2258C603.534 69.3431 603.233 69.3992 602.93 69.3901H576.2V81.9001H605.63C605.929 81.8874 606.227 81.9369 606.506 82.0454C606.784 82.154 607.038 82.3193 607.249 82.5308C607.461 82.7423 607.626 82.9955 607.734 83.2742C607.843 83.553 607.893 83.8512 607.88 84.1501V92.6101C607.885 93.1961 607.659 93.7604 607.25 94.1801C607.044 94.4027 606.793 94.5785 606.514 94.6958C606.234 94.8131 605.933 94.8692 605.63 94.8601H562.88C562.584 94.8604 562.291 94.8003 562.02 94.6834C561.748 94.5664 561.503 94.3952 561.3 94.1801V94.1801Z" fill="#27255E"/>
<path d="M627 93.2399C623.386 91.8992 620.199 89.613 617.77 86.6199C615.752 84.0425 614.604 80.8914 614.49 77.6199C614.493 77.3736 614.545 77.1303 614.645 76.9051C614.745 76.6798 614.89 76.4773 615.07 76.3099C615.252 76.1228 615.469 75.9749 615.71 75.8751C615.951 75.7754 616.21 75.726 616.47 75.7299H627.81C628.419 75.7021 629.024 75.8403 629.56 76.1299C630.085 76.4646 630.557 76.8758 630.96 77.3499C631.811 78.9842 633.126 80.3306 634.74 81.2199C636.875 82.3324 639.266 82.8603 641.67 82.7499C645.09 82.7499 647.7 82.2099 649.5 81.1299C650.309 80.7107 650.989 80.0783 651.465 79.301C651.94 78.5238 652.195 77.6312 652.2 76.7199C652.218 76.1103 652.102 75.5043 651.86 74.9445C651.618 74.3847 651.256 73.8847 650.8 73.4799C649.511 72.4474 648.029 71.6825 646.44 71.2299C643.54 70.3313 640.596 69.5803 637.62 68.9799C630.42 67.4799 625.034 65.2732 621.46 62.3599C617.887 59.4466 616.104 55.2932 616.11 49.8999C616.064 46.3881 617.136 42.9527 619.17 40.0899C621.39 37.0657 624.415 34.7267 627.9 33.3399C632.1 31.6403 636.601 30.8135 641.13 30.9099C645.804 30.7984 650.444 31.7204 654.72 33.6099C658.167 35.1011 661.183 37.4362 663.49 40.3999C665.337 42.7071 666.452 45.5141 666.69 48.4599C666.696 48.7096 666.651 48.9578 666.557 49.1896C666.464 49.4214 666.325 49.6319 666.149 49.8085C665.972 49.9851 665.762 50.1241 665.53 50.2172C665.298 50.3102 665.05 50.3554 664.8 50.3499H652.88C652.273 50.3747 651.669 50.2511 651.12 49.9899C650.626 49.7065 650.21 49.3044 649.91 48.8199C649.678 48.0703 649.299 47.3742 648.797 46.7717C648.294 46.1692 647.676 45.6724 646.98 45.3099C645.104 44.3624 643.032 43.8688 640.93 43.8688C638.829 43.8688 636.756 44.3624 634.88 45.3099C634.181 45.7641 633.614 46.3939 633.235 47.1363C632.856 47.8786 632.678 48.7074 632.72 49.5399C632.702 50.1191 632.8 50.6961 633.007 51.237C633.215 51.7779 633.529 52.2719 633.93 52.6899C635.084 53.7317 636.448 54.5127 637.93 54.9799C640.503 55.8749 643.136 56.5834 645.81 57.0999C650.401 57.8291 654.887 59.1117 659.17 60.9199C661.449 62.0019 663.457 63.5797 665.047 65.5378C666.638 67.4959 667.77 69.7849 668.361 72.2371C668.953 74.6893 668.988 77.2428 668.466 79.7106C667.943 82.1784 666.875 84.4981 665.34 86.4999C662.82 89.6215 659.488 91.9882 655.71 93.3399C646.392 96.5707 636.249 96.5248 626.96 93.2099L627 93.2399Z" fill="#27255E"/>
<path d="M29.3601 328.5C29.2785 328.421 29.2141 328.326 29.1711 328.221C29.1281 328.116 29.1073 328.004 29.1101 327.89V304.5C29.1073 304.263 29.1888 304.033 29.3401 303.85C29.4212 303.766 29.5194 303.7 29.6281 303.657C29.7367 303.614 29.8534 303.594 29.9701 303.6H38.7601C45.8134 303.6 49.4134 306.863 49.5601 313.39C49.5601 314.78 49.6301 315.72 49.6301 316.2C49.6301 316.68 49.6301 317.58 49.5601 318.97C49.4601 322.303 48.5601 324.783 46.8601 326.41C45.1601 328.037 42.5201 328.833 38.9401 328.8H30.0001C29.8778 328.801 29.7569 328.774 29.6461 328.723C29.5354 328.671 29.4377 328.595 29.3601 328.5V328.5ZM38.7601 324.61C40.7601 324.61 42.2101 324.16 43.1101 323.26C44.0001 322.36 44.4701 320.88 44.5201 318.81C44.5201 317.37 44.5901 316.47 44.5901 316.11C44.5901 315.75 44.5901 314.84 44.5201 313.45C44.6066 311.857 44.0685 310.293 43.0201 309.09C41.7813 308.059 40.1865 307.556 38.5801 307.69H34.1101V324.61H38.7601Z" fill="#07395B"/>
<path d="M54.6699 328.5C54.5883 328.421 54.5239 328.326 54.4809 328.221C54.4379 328.116 54.4171 328.003 54.4199 327.89V304.5C54.4143 304.383 54.4336 304.267 54.4768 304.158C54.5199 304.049 54.5857 303.951 54.6699 303.87C54.8357 303.717 55.0544 303.635 55.2799 303.64H58.6599C58.7756 303.631 58.8917 303.647 59.0006 303.687C59.1095 303.727 59.2085 303.79 59.291 303.872C59.3735 303.953 59.4375 304.051 59.4787 304.16C59.5199 304.268 59.5374 304.384 59.5299 304.5V327.98C59.5323 328.093 59.5123 328.204 59.4711 328.309C59.4299 328.414 59.3683 328.509 59.2899 328.59C59.21 328.676 59.112 328.743 59.0031 328.786C58.8941 328.829 58.7769 328.848 58.6599 328.84H55.2799C55.1593 328.832 55.0419 328.798 54.9364 328.739C54.8308 328.68 54.7398 328.599 54.6699 328.5V328.5Z" fill="#07395B"/>
<path d="M68.4201 328.18C67.048 327.656 65.8425 326.771 64.9301 325.62C64.1566 324.643 63.7152 323.445 63.6701 322.2C63.6658 322.1 63.6823 322.001 63.7185 321.908C63.7547 321.815 63.8098 321.731 63.8803 321.66C63.9508 321.59 64.0352 321.535 64.1281 321.498C64.221 321.462 64.3205 321.446 64.4201 321.45H67.6301C67.8613 321.434 68.0917 321.49 68.2901 321.61C68.4764 321.748 68.6301 321.926 68.7401 322.13C69.0202 322.995 69.6118 323.726 70.4001 324.18C71.4744 324.785 72.6986 325.073 73.9301 325.01C75.2681 325.097 76.6033 324.803 77.7801 324.16C78.1839 323.918 78.5161 323.572 78.7428 323.159C78.9694 322.747 79.0824 322.281 79.0701 321.81C79.0817 321.503 79.0289 321.196 78.9153 320.91C78.8016 320.625 78.6296 320.366 78.4101 320.15C77.8261 319.645 77.1457 319.264 76.4101 319.03C75.5301 318.72 74.2301 318.34 72.5001 317.88C70.2524 317.473 68.128 316.556 66.2901 315.2C65.6181 314.608 65.089 313.871 64.7426 313.045C64.3962 312.218 64.2415 311.325 64.2901 310.43C64.2713 309.106 64.6664 307.809 65.4201 306.72C66.2538 305.58 67.3901 304.697 68.7001 304.17C70.2828 303.511 71.9861 303.191 73.7001 303.23C75.4568 303.177 77.2031 303.518 78.8101 304.23C80.1065 304.813 81.2372 305.71 82.1001 306.84C82.8012 307.739 83.2221 308.824 83.3101 309.96C83.3129 310.06 83.2951 310.16 83.2578 310.253C83.2205 310.346 83.1644 310.43 83.0931 310.5C83.0219 310.571 82.9368 310.626 82.8434 310.662C82.75 310.698 82.6502 310.714 82.5501 310.71H79.2001C78.982 310.721 78.7662 310.661 78.5857 310.538C78.4051 310.416 78.2697 310.237 78.2001 310.03C78.1123 309.624 77.9383 309.241 77.6899 308.908C77.4414 308.576 77.1244 308.3 76.7601 308.1C75.853 307.565 74.8128 307.298 73.7601 307.33C72.6518 307.268 71.5496 307.532 70.5901 308.09C70.291 308.298 70.0376 308.565 69.8452 308.875C69.6529 309.184 69.5257 309.53 69.4714 309.89C69.4171 310.251 69.4368 310.618 69.5295 310.971C69.6221 311.323 69.7856 311.653 70.0101 311.94C70.5261 312.451 71.1471 312.843 71.8301 313.09C72.9992 313.537 74.1949 313.911 75.4101 314.21C77.1495 314.569 78.8458 315.112 80.4701 315.83C81.59 316.313 82.5553 317.095 83.2601 318.09C83.8971 319.143 84.2101 320.36 84.1601 321.59C84.1855 323.028 83.7356 324.434 82.8801 325.59C81.9539 326.786 80.7047 327.692 79.2801 328.2C77.5711 328.828 75.7604 329.133 73.9401 329.1C72.0571 329.166 70.1799 328.853 68.4201 328.18V328.18Z" fill="#07395B"/>
<path d="M93.8 328.5C93.7184 328.421 93.6541 328.326 93.611 328.221C93.568 328.116 93.5472 328.004 93.55 327.89V308.02H86.89C86.7768 308.021 86.6645 308 86.5598 307.957C86.455 307.914 86.3599 307.85 86.28 307.77C86.1968 307.69 86.1308 307.593 86.0861 307.487C86.0414 307.38 86.0189 307.266 86.02 307.15V304.5C86.0122 304.26 86.0984 304.027 86.26 303.85C86.3399 303.764 86.4379 303.697 86.5468 303.654C86.6558 303.611 86.773 303.592 86.89 303.6H105.25C105.368 303.594 105.486 303.614 105.597 303.657C105.707 303.7 105.807 303.766 105.89 303.85C105.975 303.935 106.042 304.037 106.087 304.148C106.131 304.26 106.153 304.38 106.15 304.5V307.16C106.151 307.276 106.129 307.39 106.084 307.497C106.039 307.603 105.973 307.7 105.89 307.78C105.806 307.863 105.705 307.927 105.595 307.97C105.485 308.013 105.368 308.033 105.25 308.03H98.62V327.94C98.6228 328.054 98.602 328.166 98.559 328.271C98.516 328.376 98.4516 328.471 98.37 328.55C98.2847 328.634 98.183 328.7 98.0711 328.743C97.9593 328.786 97.8397 328.805 97.72 328.8H94.41C94.2928 328.797 94.1777 328.768 94.0725 328.716C93.9672 328.665 93.8743 328.591 93.8 328.5V328.5Z" fill="#07395B"/>
<path d="M110 328.5C109.917 328.422 109.851 328.327 109.806 328.222C109.762 328.117 109.739 328.004 109.74 327.89V304.5C109.732 304.26 109.818 304.027 109.98 303.85C110.06 303.764 110.158 303.697 110.267 303.654C110.376 303.611 110.493 303.592 110.61 303.6H120C122.469 303.455 124.911 304.18 126.9 305.65C127.738 306.363 128.399 307.261 128.833 308.272C129.267 309.283 129.461 310.381 129.4 311.48C129.455 313.049 129.007 314.594 128.12 315.89C127.237 317.102 125.995 318.005 124.57 318.47L129.83 327.65C129.896 327.77 129.934 327.903 129.94 328.04C129.943 328.142 129.923 328.244 129.882 328.337C129.84 328.431 129.778 328.514 129.7 328.58C129.633 328.65 129.552 328.705 129.462 328.743C129.373 328.781 129.277 328.8 129.18 328.8H125.9C125.574 328.811 125.254 328.705 125 328.5C124.771 328.296 124.582 328.052 124.44 327.78L119.8 319.25H114.8V327.89C114.802 328.002 114.782 328.114 114.741 328.219C114.7 328.324 114.638 328.419 114.56 328.5C114.48 328.586 114.382 328.653 114.273 328.696C114.164 328.739 114.047 328.758 113.93 328.75H110.66C110.538 328.761 110.416 328.744 110.301 328.701C110.187 328.657 110.084 328.589 110 328.5V328.5ZM119.82 315.18C120.992 315.254 122.151 314.899 123.08 314.18C123.457 313.82 123.751 313.382 123.941 312.897C124.132 312.411 124.213 311.89 124.18 311.37C124.211 310.844 124.129 310.317 123.939 309.826C123.749 309.334 123.456 308.889 123.08 308.52C122.158 307.789 120.994 307.431 119.82 307.52H114.75V315.15L119.82 315.18Z" fill="#07395B"/>
<path d="M134.26 328.5C134.178 328.421 134.114 328.326 134.071 328.221C134.028 328.116 134.007 328.004 134.01 327.89V304.5C134.004 304.383 134.024 304.267 134.067 304.158C134.11 304.049 134.176 303.951 134.26 303.87C134.427 303.719 134.645 303.637 134.87 303.64H138.26C138.375 303.631 138.491 303.647 138.599 303.687C138.708 303.727 138.806 303.79 138.888 303.872C138.97 303.954 139.033 304.052 139.073 304.161C139.113 304.269 139.129 304.385 139.12 304.5V327.98C139.123 328.205 139.041 328.423 138.89 328.59C138.809 328.674 138.711 328.74 138.602 328.783C138.493 328.826 138.377 328.846 138.26 328.84H134.87C134.75 328.832 134.632 328.797 134.527 328.738C134.422 328.68 134.33 328.598 134.26 328.5V328.5Z" fill="#07395B"/>
<path d="M145 328.5C144.917 328.422 144.851 328.327 144.806 328.222C144.762 328.117 144.739 328.004 144.74 327.89V304.5C144.732 304.26 144.818 304.027 144.98 303.85C145.06 303.764 145.158 303.697 145.267 303.654C145.376 303.611 145.493 303.592 145.61 303.6H156.05C158.857 303.6 160.95 304.217 162.33 305.45C163.024 306.091 163.569 306.876 163.927 307.75C164.284 308.625 164.446 309.567 164.4 310.51C164.432 311.643 164.11 312.758 163.48 313.7C162.944 314.507 162.206 315.158 161.34 315.59C162.383 316.075 163.265 316.849 163.88 317.82C164.558 318.871 164.906 320.1 164.88 321.35C164.917 322.359 164.735 323.364 164.346 324.296C163.958 325.229 163.372 326.066 162.63 326.75C160.864 328.212 158.608 328.945 156.32 328.8H145.64C145.518 328.802 145.396 328.776 145.286 328.724C145.175 328.672 145.077 328.595 145 328.5V328.5ZM155.4 313.88C156.427 313.957 157.445 313.635 158.24 312.98C158.571 312.674 158.831 312.301 159.004 311.885C159.177 311.469 159.257 311.02 159.24 310.57C159.262 310.122 159.184 309.675 159.011 309.262C158.838 308.848 158.575 308.478 158.24 308.18C157.43 307.558 156.419 307.255 155.4 307.33H149.75V313.88H155.4ZM155.76 324.93C156.289 324.965 156.819 324.895 157.32 324.723C157.822 324.551 158.284 324.282 158.68 323.93C159.015 323.586 159.277 323.177 159.448 322.728C159.62 322.279 159.699 321.8 159.68 321.32C159.702 320.834 159.624 320.348 159.452 319.892C159.28 319.437 159.018 319.021 158.68 318.67C158.284 318.318 157.822 318.049 157.32 317.877C156.819 317.705 156.289 317.635 155.76 317.67H149.76V324.97L155.76 324.93Z" fill="#07395B"/>
<path d="M172 326.67C170.2 325.01 169.3 322.5 169.3 319.14V304.5C169.292 304.26 169.378 304.027 169.54 303.85C169.62 303.764 169.718 303.697 169.827 303.654C169.936 303.611 170.053 303.592 170.17 303.6H173.44C173.557 303.592 173.674 303.611 173.783 303.654C173.892 303.697 173.99 303.764 174.07 303.85C174.232 304.027 174.318 304.26 174.31 304.5V319.15C174.191 320.717 174.678 322.271 175.67 323.49C176.18 323.993 176.789 324.383 177.46 324.634C178.13 324.886 178.845 324.993 179.56 324.95C180.272 324.997 180.986 324.891 181.653 324.639C182.321 324.387 182.926 323.995 183.43 323.49C184.415 322.267 184.898 320.716 184.78 319.15V304.5C184.777 304.38 184.799 304.26 184.843 304.148C184.888 304.037 184.955 303.935 185.04 303.85C185.123 303.766 185.223 303.7 185.333 303.657C185.444 303.614 185.562 303.594 185.68 303.6H188.92C189.037 303.592 189.154 303.611 189.263 303.654C189.372 303.697 189.47 303.764 189.55 303.85C189.712 304.027 189.798 304.26 189.79 304.5V319.15C189.79 322.51 188.89 325.02 187.11 326.68C185.33 328.34 182.8 329.16 179.56 329.16C176.32 329.16 173.75 328.32 172 326.67Z" fill="#07395B"/>
<path d="M195.39 328.5C195.309 328.421 195.244 328.326 195.201 328.221C195.158 328.116 195.137 328.004 195.14 327.89V304.5C195.134 304.383 195.154 304.267 195.197 304.158C195.24 304.049 195.306 303.951 195.39 303.87C195.557 303.719 195.775 303.637 196 303.64H199.39C199.505 303.631 199.621 303.647 199.73 303.687C199.838 303.727 199.937 303.79 200.018 303.872C200.1 303.954 200.163 304.052 200.203 304.161C200.243 304.269 200.259 304.385 200.25 304.5V327.98C200.253 328.205 200.171 328.423 200.02 328.59C199.939 328.674 199.841 328.74 199.732 328.783C199.624 328.826 199.507 328.846 199.39 328.84H196C195.88 328.832 195.763 328.797 195.657 328.738C195.552 328.68 195.46 328.598 195.39 328.5V328.5Z" fill="#07395B"/>
<path d="M206.15 328.5C206.07 328.42 206.007 328.325 205.964 328.22C205.921 328.115 205.899 328.003 205.9 327.89V304.5C205.892 304.26 205.978 304.027 206.14 303.85C206.22 303.764 206.318 303.697 206.427 303.654C206.536 303.611 206.653 303.592 206.77 303.6H215.55C222.61 303.6 226.21 306.863 226.35 313.39C226.4 314.78 226.42 315.72 226.42 316.2C226.42 316.68 226.42 317.58 226.35 318.97C226.25 322.303 225.35 324.783 223.65 326.41C221.95 328.037 219.31 328.833 215.73 328.8H206.73C206.618 328.791 206.509 328.76 206.41 328.709C206.31 328.657 206.222 328.586 206.15 328.5V328.5ZM215.55 324.61C217.55 324.61 219.02 324.16 219.91 323.26C220.8 322.36 221.26 320.88 221.31 318.81C221.36 317.37 221.38 316.47 221.38 316.11C221.38 315.75 221.38 314.84 221.31 313.45C221.418 312.652 221.337 311.84 221.074 311.079C220.811 310.319 220.373 309.63 219.795 309.07C219.217 308.509 218.515 308.093 217.747 307.853C216.978 307.613 216.164 307.557 215.37 307.69H210.91V324.61H215.55Z" fill="#07395B"/>
<path d="M233.26 326.67C231.44 325.01 230.48 322.55 230.38 319.29C230.38 318.59 230.38 317.57 230.38 316.23C230.38 314.89 230.38 313.83 230.38 313.13C230.48 309.943 231.463 307.497 233.33 305.79C235.504 304.129 238.164 303.229 240.9 303.229C243.636 303.229 246.296 304.129 248.47 305.79C250.35 307.49 251.35 309.937 251.47 313.13C251.52 314.52 251.54 315.55 251.54 316.23C251.54 316.91 251.54 317.89 251.47 319.29C251.35 322.55 250.38 325.01 248.56 326.67C246.73 328.32 244.19 329.15 240.92 329.15C237.65 329.15 235.08 328.32 233.26 326.67ZM244.75 323.55C245.806 322.318 246.356 320.732 246.29 319.11C246.29 317.67 246.37 316.69 246.37 316.19C246.37 315.69 246.37 314.67 246.29 313.27C246.356 311.649 245.806 310.062 244.75 308.83C244.241 308.336 243.635 307.951 242.971 307.7C242.307 307.449 241.599 307.337 240.89 307.37C240.189 307.339 239.489 307.453 238.833 307.704C238.178 307.955 237.581 308.339 237.08 308.83C236.02 310.061 235.466 311.647 235.53 313.27C235.53 313.97 235.53 314.94 235.53 316.19C235.53 317.44 235.53 318.39 235.53 319.11C235.465 320.73 236.011 322.314 237.06 323.55C237.563 324.044 238.163 324.429 238.822 324.68C239.481 324.931 240.185 325.044 240.89 325.01C241.599 325.044 242.307 324.931 242.971 324.68C243.635 324.429 244.241 324.044 244.75 323.55Z" fill="#07395B"/>
<path d="M256.48 328.5C256.398 328.421 256.334 328.326 256.291 328.221C256.248 328.116 256.227 328.004 256.23 327.89V304.5C256.227 304.263 256.309 304.033 256.46 303.85C256.541 303.766 256.639 303.7 256.748 303.657C256.857 303.614 256.973 303.594 257.09 303.6H266.42C268.886 303.457 271.324 304.182 273.31 305.65C274.15 306.362 274.812 307.259 275.246 308.271C275.68 309.283 275.873 310.381 275.81 311.48C275.868 313.048 275.423 314.593 274.54 315.89C273.662 317.109 272.424 318.022 271 318.5L276.26 327.68C276.323 327.8 276.358 327.934 276.36 328.07C276.362 328.171 276.343 328.272 276.303 328.365C276.264 328.458 276.205 328.542 276.13 328.61C275.993 328.749 275.806 328.828 275.61 328.83H272.33C272.016 328.853 271.705 328.764 271.45 328.58C271.221 328.376 271.032 328.132 270.89 327.86L266.25 319.33H261.25V327.97C261.253 328.195 261.171 328.413 261.02 328.58C260.939 328.664 260.841 328.73 260.732 328.773C260.623 328.816 260.507 328.836 260.39 328.83H257.11C256.987 328.826 256.866 328.794 256.757 328.737C256.648 328.68 256.553 328.599 256.48 328.5V328.5ZM266.31 315.18C267.482 315.253 268.641 314.898 269.57 314.18C269.947 313.82 270.241 313.383 270.431 312.897C270.622 312.412 270.703 311.89 270.67 311.37C270.701 310.844 270.618 310.318 270.429 309.826C270.239 309.334 269.946 308.889 269.57 308.52C268.647 307.79 267.484 307.433 266.31 307.52H261.23V315.15L266.31 315.18Z" fill="#07395B"/>
<path d="M278.39 328.57C278.312 328.504 278.25 328.421 278.208 328.327C278.167 328.234 278.147 328.132 278.15 328.03L278.22 327.71L286.9 304.5C286.964 304.222 287.128 303.977 287.36 303.812C287.592 303.646 287.876 303.571 288.16 303.6H292.08C292.361 303.583 292.64 303.663 292.869 303.827C293.099 303.991 293.265 304.228 293.34 304.5L302 327.71C302.014 327.816 302.014 327.924 302 328.03C302.002 328.13 301.983 328.23 301.945 328.323C301.908 328.415 301.851 328.5 301.78 328.57C301.717 328.64 301.64 328.696 301.554 328.734C301.468 328.772 301.374 328.791 301.28 328.79H298.2C297.982 328.801 297.766 328.741 297.586 328.618C297.405 328.495 297.27 328.317 297.2 328.11L295.51 323.71H284.78L283.08 328.11C283.01 328.317 282.875 328.495 282.694 328.618C282.514 328.741 282.298 328.801 282.08 328.79H278.95C278.846 328.796 278.743 328.779 278.646 328.741C278.549 328.703 278.462 328.645 278.39 328.57ZM294.21 319.57L290.1 308.5L286 319.57H294.21Z" fill="#07395B"/>
<path d="M313 328.56C312.918 328.477 312.853 328.379 312.81 328.271C312.767 328.162 312.747 328.046 312.75 327.93V304.5C312.745 304.259 312.835 304.026 313 303.85C313.086 303.766 313.188 303.701 313.299 303.658C313.411 303.615 313.53 303.595 313.65 303.6H316.5C316.728 303.59 316.953 303.65 317.146 303.771C317.339 303.893 317.491 304.07 317.58 304.28L324.52 317.28L331.52 304.28C331.614 304.073 331.766 303.899 331.958 303.778C332.15 303.657 332.373 303.595 332.6 303.6H335.41C335.53 303.595 335.649 303.614 335.761 303.657C335.873 303.7 335.975 303.766 336.06 303.85C336.144 303.936 336.209 304.037 336.252 304.149C336.295 304.261 336.315 304.38 336.31 304.5V327.94C336.316 328.057 336.296 328.173 336.253 328.282C336.21 328.391 336.144 328.489 336.06 328.57C335.88 328.726 335.648 328.808 335.41 328.8H332.41C332.297 328.803 332.184 328.783 332.079 328.74C331.973 328.697 331.879 328.632 331.8 328.55C331.717 328.472 331.651 328.377 331.607 328.272C331.562 328.167 331.539 328.054 331.54 327.94V312.34L326.54 321.95C326.43 322.182 326.258 322.379 326.042 322.519C325.827 322.658 325.577 322.735 325.32 322.74H323.84C323.583 322.735 323.333 322.658 323.118 322.519C322.902 322.379 322.73 322.182 322.62 321.95L317.62 312.34V327.93C317.623 328.155 317.541 328.373 317.39 328.54C317.309 328.624 317.211 328.69 317.102 328.733C316.993 328.776 316.877 328.796 316.76 328.79H313.76C313.624 328.806 313.487 328.793 313.356 328.754C313.226 328.714 313.104 328.648 313 328.56Z" fill="#07395B"/>
<path d="M339.84 328.57C339.762 328.504 339.7 328.421 339.658 328.327C339.617 328.234 339.597 328.132 339.6 328.03L339.68 327.71L348.35 304.5C348.414 304.222 348.578 303.977 348.81 303.812C349.042 303.646 349.326 303.571 349.61 303.6H353.54C353.821 303.585 354.099 303.666 354.328 303.829C354.557 303.993 354.723 304.229 354.8 304.5L363.47 327.72C363.489 327.826 363.489 327.934 363.47 328.04C363.474 328.14 363.457 328.241 363.419 328.334C363.381 328.427 363.323 328.511 363.25 328.58C363.187 328.65 363.11 328.706 363.024 328.744C362.938 328.782 362.844 328.801 362.75 328.8H359.62C359.36 328.823 359.102 328.744 358.9 328.58C358.748 328.462 358.633 328.302 358.57 328.12L356.88 323.72H346.23L344.54 328.12C344.46 328.33 344.315 328.509 344.126 328.631C343.937 328.754 343.714 328.813 343.49 328.8H340.36C340.262 328.799 340.166 328.778 340.076 328.738C339.987 328.699 339.906 328.642 339.84 328.57ZM355.66 319.57L351.56 308.5L347.49 319.62L355.66 319.57Z" fill="#07395B"/>
<path d="M371 328.5C370.917 328.422 370.851 328.327 370.806 328.222C370.761 328.117 370.739 328.004 370.74 327.89V319.75L362.25 304.7C362.179 304.582 362.141 304.447 362.14 304.31C362.136 304.209 362.153 304.109 362.191 304.016C362.229 303.923 362.286 303.839 362.36 303.77C362.423 303.7 362.5 303.644 362.586 303.606C362.672 303.568 362.766 303.549 362.86 303.55H366.06C366.302 303.54 366.541 303.618 366.73 303.77C366.895 303.895 367.035 304.051 367.14 304.23L373.26 314.71L379.35 304.23C379.458 304.028 379.618 303.859 379.813 303.74C380.008 303.62 380.231 303.555 380.46 303.55H383.63C383.73 303.549 383.829 303.567 383.922 303.605C384.015 303.643 384.099 303.699 384.17 303.77C384.241 303.84 384.297 303.925 384.335 304.018C384.372 304.11 384.391 304.21 384.39 304.31C384.389 304.447 384.351 304.582 384.28 304.7L375.78 319.75V327.89C375.783 328.003 375.762 328.116 375.719 328.221C375.676 328.326 375.611 328.421 375.53 328.5C375.444 328.584 375.343 328.65 375.231 328.693C375.119 328.736 375 328.755 374.88 328.75H371.61C371.496 328.753 371.383 328.733 371.278 328.69C371.173 328.647 371.078 328.582 371 328.5V328.5Z" fill="#07395B"/>
<path d="M389 326.67C387.18 325.01 386.21 322.55 386.12 319.29C386.12 318.59 386.12 317.57 386.12 316.23C386.12 314.89 386.12 313.83 386.12 313.13C386.076 311.769 386.315 310.414 386.823 309.15C387.331 307.886 388.096 306.742 389.07 305.79C391.244 304.129 393.904 303.229 396.64 303.229C399.376 303.229 402.036 304.129 404.21 305.79C406.09 307.49 407.09 309.937 407.21 313.13C407.26 314.52 407.28 315.55 407.28 316.23C407.28 316.91 407.28 317.89 407.21 319.29C407.09 322.55 406.117 325.01 404.29 326.67C402.463 328.33 399.92 329.157 396.66 329.15C393.33 329.15 390.78 328.32 389 326.67ZM400.48 323.55C401.54 322.319 402.093 320.733 402.03 319.11C402.08 317.67 402.1 316.69 402.1 316.19C402.1 315.69 402.1 314.67 402.03 313.27C402.093 311.647 401.54 310.061 400.48 308.83C399.426 307.889 398.063 307.369 396.65 307.369C395.237 307.369 393.874 307.889 392.82 308.83C391.76 310.061 391.206 311.647 391.27 313.27C391.27 313.97 391.27 314.94 391.27 316.19C391.27 317.44 391.27 318.39 391.27 319.11C391.205 320.73 391.751 322.314 392.8 323.55C393.303 324.045 393.903 324.43 394.562 324.681C395.221 324.932 395.925 325.044 396.63 325.01C397.331 325.038 398.03 324.923 398.685 324.672C399.34 324.421 399.937 324.039 400.44 323.55H400.48Z" fill="#07395B"/>
<path d="M412.18 328.5C412.098 328.421 412.034 328.326 411.991 328.221C411.948 328.116 411.927 328.004 411.93 327.89V304.5C411.918 304.262 412.001 304.028 412.16 303.85C412.241 303.766 412.339 303.7 412.448 303.657C412.556 303.614 412.673 303.594 412.79 303.6H422.12C424.586 303.457 427.024 304.182 429.01 305.65C429.849 306.362 430.512 307.259 430.946 308.271C431.38 309.283 431.573 310.381 431.51 311.48C431.565 313.049 431.116 314.595 430.23 315.89C429.351 317.101 428.112 318.004 426.69 318.47L431.94 327.65C432.011 327.768 432.049 327.903 432.05 328.04C432.052 328.141 432.033 328.242 431.993 328.335C431.954 328.428 431.894 328.512 431.82 328.58C431.751 328.65 431.668 328.706 431.577 328.744C431.486 328.781 431.388 328.801 431.29 328.8H428C427.686 328.824 427.374 328.736 427.12 328.55C426.888 328.349 426.698 328.104 426.56 327.83L421.92 319.3H416.92V327.94C416.923 328.165 416.841 328.383 416.69 328.55C416.609 328.634 416.51 328.7 416.402 328.743C416.293 328.786 416.177 328.806 416.06 328.8H412.78C412.664 328.795 412.551 328.766 412.448 328.714C412.344 328.663 412.253 328.59 412.18 328.5V328.5ZM422 315.22C423.172 315.293 424.33 314.938 425.26 314.22C425.635 313.86 425.928 313.421 426.116 312.936C426.304 312.45 426.384 311.93 426.35 311.41C426.382 310.885 426.301 310.359 426.113 309.867C425.925 309.376 425.634 308.93 425.26 308.56C424.337 307.83 423.173 307.473 422 307.56H416.92V315.19L422 315.22Z" fill="#07395B"/>
<path d="M436.41 328.5C436.327 328.422 436.261 328.327 436.216 328.222C436.172 328.117 436.149 328.004 436.15 327.89V304.5C436.146 304.383 436.167 304.266 436.212 304.157C436.257 304.049 436.324 303.951 436.41 303.87C436.576 303.717 436.794 303.635 437.02 303.64H440.4C440.515 303.631 440.632 303.647 440.741 303.687C440.849 303.727 440.948 303.79 441.031 303.872C441.113 303.953 441.177 304.051 441.219 304.16C441.26 304.268 441.277 304.384 441.27 304.5V327.98C441.272 328.093 441.252 328.204 441.211 328.309C441.17 328.414 441.108 328.509 441.03 328.59C440.95 328.676 440.852 328.743 440.743 328.786C440.634 328.829 440.517 328.848 440.4 328.84H437C436.883 328.83 436.769 328.794 436.667 328.735C436.565 328.676 436.478 328.596 436.41 328.5V328.5Z" fill="#07395B"/>
<path d="M450.16 328.18C448.788 327.655 447.582 326.771 446.67 325.62C445.901 324.641 445.46 323.444 445.41 322.2C445.406 322.1 445.422 322.001 445.458 321.908C445.494 321.815 445.55 321.731 445.62 321.66C445.691 321.59 445.775 321.535 445.868 321.498C445.961 321.462 446.06 321.446 446.16 321.45H449.37C449.601 321.433 449.832 321.489 450.03 321.61C450.216 321.748 450.37 321.926 450.48 322.13C450.76 322.995 451.352 323.726 452.14 324.18C453.214 324.785 454.438 325.073 455.67 325.01C457.008 325.101 458.344 324.806 459.52 324.16C459.925 323.918 460.258 323.573 460.487 323.16C460.715 322.748 460.83 322.282 460.82 321.81C460.83 321.502 460.775 321.195 460.66 320.909C460.544 320.624 460.371 320.365 460.15 320.15C459.567 319.643 458.886 319.262 458.15 319.03C457.27 318.72 455.97 318.34 454.24 317.88C451.992 317.473 449.868 316.556 448.03 315.2C447.362 314.604 446.836 313.867 446.489 313.042C446.143 312.216 445.986 311.324 446.03 310.43C446.009 309.104 446.408 307.806 447.17 306.72C447.997 305.578 449.131 304.694 450.44 304.17C452.023 303.511 453.726 303.191 455.44 303.23C457.197 303.176 458.943 303.517 460.55 304.23C461.846 304.813 462.977 305.71 463.84 306.84C464.541 307.738 464.962 308.824 465.05 309.96C465.053 310.06 465.035 310.16 464.998 310.253C464.96 310.346 464.904 310.43 464.833 310.5C464.762 310.571 464.677 310.625 464.583 310.662C464.49 310.698 464.39 310.714 464.29 310.71H461C460.774 310.733 460.546 310.678 460.355 310.554C460.164 310.431 460.021 310.246 459.95 310.03C459.862 309.624 459.688 309.241 459.44 308.908C459.191 308.575 458.874 308.3 458.51 308.1C457.603 307.565 456.563 307.298 455.51 307.33C454.402 307.268 453.299 307.532 452.34 308.09C452.041 308.298 451.787 308.565 451.595 308.875C451.403 309.184 451.275 309.53 451.221 309.89C451.167 310.25 451.187 310.618 451.279 310.971C451.372 311.323 451.535 311.653 451.76 311.94C452.276 312.451 452.897 312.843 453.58 313.09C454.749 313.537 455.945 313.911 457.16 314.21C458.899 314.569 460.595 315.112 462.22 315.83C463.34 316.313 464.305 317.095 465.01 318.09C465.647 319.143 465.96 320.36 465.91 321.59C465.935 323.028 465.485 324.434 464.63 325.59C463.704 326.786 462.454 327.692 461.03 328.2C459.321 328.828 457.51 329.133 455.69 329.1C453.804 329.167 451.923 328.854 450.16 328.18V328.18Z" fill="#07395B"/>
<path d="M475.54 328.5C475.459 328.421 475.394 328.326 475.351 328.221C475.308 328.116 475.287 328.004 475.29 327.89V308.02H468.63C468.517 308.021 468.405 308 468.3 307.957C468.195 307.914 468.1 307.85 468.02 307.77C467.937 307.69 467.871 307.593 467.826 307.487C467.782 307.38 467.759 307.266 467.76 307.15V304.5C467.752 304.26 467.839 304.027 468 303.85C468.08 303.764 468.178 303.697 468.287 303.654C468.396 303.611 468.513 303.592 468.63 303.6H487C487.12 303.595 487.239 303.615 487.351 303.658C487.463 303.701 487.565 303.766 487.65 303.85C487.816 304.026 487.905 304.259 487.9 304.5V307.16C487.901 307.391 487.811 307.614 487.65 307.78C487.475 307.945 487.241 308.035 487 308.03H480.37V327.94C480.373 328.054 480.352 328.166 480.309 328.271C480.266 328.376 480.202 328.471 480.12 328.55C480.035 328.634 479.933 328.7 479.821 328.743C479.709 328.786 479.59 328.805 479.47 328.8H476.16C476.041 328.798 475.924 328.77 475.817 328.718C475.71 328.667 475.616 328.592 475.54 328.5V328.5Z" fill="#07395B"/>
<path d="M486.83 328.57C486.752 328.504 486.69 328.421 486.648 328.327C486.607 328.234 486.587 328.132 486.59 328.03L486.66 327.71L495.34 304.5C495.404 304.222 495.568 303.977 495.8 303.812C496.032 303.646 496.317 303.571 496.6 303.6H500.52C500.802 303.583 501.08 303.663 501.31 303.827C501.539 303.991 501.705 304.228 501.78 304.5L510.46 327.72C510.475 327.826 510.475 327.934 510.46 328.04C510.462 328.14 510.443 328.24 510.406 328.333C510.368 328.425 510.311 328.51 510.24 328.58C510.177 328.649 510.099 328.704 510.013 328.742C509.927 328.78 509.834 328.8 509.74 328.8H506.6C506.341 328.818 506.085 328.74 505.88 328.58C505.732 328.46 505.621 328.301 505.56 328.12L503.87 323.72H493.17L491.48 328.12C491.411 328.327 491.275 328.505 491.095 328.628C490.914 328.751 490.698 328.811 490.48 328.8H487.35C487.252 328.8 487.155 328.78 487.066 328.74C486.976 328.7 486.896 328.643 486.83 328.57ZM502.65 319.57L498.54 308.5L494.47 319.62L502.65 319.57Z" fill="#07395B"/>
<path d="M521.4 328.5C521.319 328.421 521.254 328.326 521.211 328.221C521.168 328.116 521.147 328.004 521.15 327.89V304.5C521.147 304.263 521.229 304.033 521.38 303.85C521.461 303.766 521.559 303.7 521.668 303.657C521.777 303.614 521.893 303.594 522.01 303.6H524.79C525.015 303.58 525.241 303.636 525.43 303.76C525.585 303.877 525.721 304.019 525.83 304.18L536.2 320.3V304.5C536.197 304.263 536.279 304.033 536.43 303.85C536.511 303.766 536.609 303.7 536.718 303.657C536.827 303.614 536.943 303.594 537.06 303.6H540.06C540.178 303.594 540.297 303.614 540.407 303.657C540.517 303.7 540.617 303.766 540.7 303.85C540.785 303.935 540.852 304.037 540.897 304.148C540.941 304.26 540.963 304.38 540.96 304.5V327.9C540.963 328.02 540.941 328.14 540.897 328.252C540.852 328.363 540.785 328.465 540.7 328.55C540.622 328.632 540.527 328.697 540.422 328.74C540.317 328.783 540.204 328.804 540.09 328.8H537.28C537.079 328.789 536.884 328.731 536.71 328.63C536.536 328.53 536.389 328.389 536.28 328.22L525.94 312.5V327.98C525.943 328.097 525.923 328.212 525.88 328.321C525.837 328.429 525.772 328.527 525.69 328.61C525.508 328.761 525.277 328.843 525.04 328.84H522.04C521.915 328.836 521.792 328.804 521.681 328.745C521.57 328.686 521.474 328.602 521.4 328.5V328.5Z" fill="#07395B"/>
<path d="M544.53 328.57C544.455 328.502 544.396 328.418 544.357 328.325C544.317 328.232 544.298 328.131 544.3 328.03L544.37 327.71L553.05 304.5C553.112 304.221 553.275 303.975 553.508 303.809C553.74 303.643 554.026 303.569 554.31 303.6H558.23C558.511 303.585 558.789 303.666 559.018 303.829C559.247 303.993 559.413 304.229 559.49 304.5L568.17 327.72C568.183 327.826 568.183 327.934 568.17 328.04C568.174 328.14 568.157 328.239 568.121 328.332C568.085 328.425 568.03 328.509 567.96 328.58C567.895 328.65 567.816 328.705 567.728 328.743C567.64 328.781 567.546 328.8 567.45 328.8H564.32C564.061 328.818 563.805 328.74 563.6 328.58C563.447 328.465 563.335 328.304 563.28 328.12L561.58 323.72H550.92L549.23 328.12C549.16 328.327 549.025 328.506 548.844 328.628C548.664 328.751 548.448 328.811 548.23 328.8H545.09C544.986 328.803 544.882 328.785 544.785 328.745C544.689 328.705 544.602 328.646 544.53 328.57V328.57ZM560.35 319.57L556.25 308.5L552.18 319.62L560.35 319.57Z" fill="#07395B"/>
<path d="M573.08 326.59C572.141 325.644 571.401 324.519 570.903 323.283C570.405 322.047 570.159 320.723 570.18 319.39C570.18 318.75 570.18 317.69 570.18 316.23C570.18 314.77 570.18 313.66 570.18 312.99C570.161 311.655 570.411 310.331 570.916 309.095C571.421 307.86 572.171 306.739 573.12 305.8C574.953 304.087 577.503 303.23 580.77 303.23C582.688 303.189 584.591 303.564 586.35 304.33C587.824 304.977 589.093 306.015 590.02 307.33C590.881 308.587 591.357 310.067 591.39 311.59V311.66C591.392 311.755 591.371 311.849 591.329 311.934C591.287 312.019 591.226 312.093 591.15 312.15C591.007 312.278 590.822 312.349 590.63 312.35H587.21C586.979 312.367 586.749 312.304 586.56 312.17C586.38 311.977 586.255 311.738 586.2 311.48C585.975 310.222 585.295 309.09 584.29 308.3C583.225 307.638 581.983 307.317 580.73 307.38C577.27 307.38 575.47 309.313 575.33 313.18C575.33 313.82 575.33 314.82 575.33 316.18C575.33 317.54 575.33 318.55 575.33 319.24C575.47 323.113 577.27 325.047 580.73 325.04C581.992 325.104 583.242 324.775 584.31 324.1C585.31 323.318 585.984 322.191 586.2 320.94C586.232 320.678 586.352 320.435 586.54 320.25C586.738 320.119 586.973 320.056 587.21 320.07H590.63C590.733 320.068 590.836 320.086 590.932 320.124C591.028 320.162 591.116 320.218 591.19 320.29C591.264 320.358 591.32 320.442 591.355 320.536C591.39 320.63 591.402 320.731 591.39 320.83C591.357 322.353 590.881 323.833 590.02 325.09C589.093 326.406 587.824 327.443 586.35 328.09C584.591 328.856 582.688 329.231 580.77 329.19C577.45 329.163 574.887 328.297 573.08 326.59Z" fill="#07395B"/>
<path d="M595.92 328.5C595.838 328.421 595.774 328.326 595.731 328.221C595.688 328.116 595.667 328.004 595.67 327.89V304.5C595.664 304.383 595.684 304.267 595.727 304.158C595.77 304.049 595.836 303.951 595.92 303.87C596.087 303.719 596.305 303.637 596.53 303.64H599.92C600.035 303.631 600.151 303.647 600.259 303.687C600.368 303.727 600.466 303.79 600.548 303.872C600.63 303.954 600.693 304.052 600.733 304.161C600.773 304.269 600.789 304.385 600.78 304.5V327.98C600.783 328.205 600.701 328.423 600.55 328.59C600.469 328.674 600.371 328.74 600.262 328.783C600.153 328.826 600.037 328.846 599.92 328.84H596.53C596.41 328.832 596.292 328.797 596.187 328.738C596.081 328.68 595.99 328.598 595.92 328.5V328.5Z" fill="#07395B"/>
<path d="M608.49 326.67C606.657 325.01 605.697 322.55 605.61 319.29C605.61 318.59 605.61 317.57 605.61 316.23C605.61 314.89 605.61 313.83 605.61 313.13C605.566 311.769 605.806 310.414 606.313 309.15C606.821 307.886 607.586 306.742 608.56 305.79C610.734 304.129 613.394 303.229 616.13 303.229C618.866 303.229 621.526 304.129 623.7 305.79C625.58 307.49 626.58 309.937 626.7 313.13C626.7 314.52 626.77 315.55 626.77 316.23C626.77 316.91 626.77 317.89 626.7 319.29C626.58 322.55 625.6 325.01 623.78 326.67C621.96 328.33 619.41 329.15 616.15 329.15C612.89 329.15 610.31 328.32 608.49 326.67ZM620 323.55C621.06 322.319 621.614 320.733 621.55 319.11C621.6 317.67 621.62 316.69 621.62 316.19C621.62 315.69 621.62 314.67 621.55 313.27C621.614 311.647 621.06 310.061 620 308.83C618.944 307.89 617.579 307.371 616.165 307.371C614.751 307.371 613.387 307.89 612.33 308.83C611.275 310.063 610.722 311.648 610.78 313.27C610.78 313.97 610.78 314.94 610.78 316.19C610.78 317.44 610.78 318.39 610.78 319.11C610.725 320.728 611.27 322.31 612.31 323.55C613.37 324.491 614.738 325.011 616.155 325.011C617.572 325.011 618.94 324.491 620 323.55V323.55Z" fill="#07395B"/>
<path d="M631.71 328.5C631.627 328.422 631.561 328.327 631.517 328.222C631.472 328.117 631.449 328.004 631.45 327.89V304.5C631.442 304.26 631.529 304.027 631.69 303.85C631.77 303.764 631.868 303.697 631.977 303.654C632.086 303.611 632.203 303.592 632.32 303.6H635.09C635.318 303.583 635.546 303.639 635.74 303.76C635.89 303.881 636.021 304.022 636.13 304.18L646.5 320.3V304.5C646.492 304.26 646.579 304.027 646.74 303.85C646.82 303.764 646.918 303.697 647.027 303.654C647.136 303.611 647.253 303.592 647.37 303.6H650.37C650.49 303.594 650.609 303.614 650.721 303.657C650.833 303.7 650.935 303.766 651.019 303.851C651.104 303.936 651.17 304.037 651.213 304.149C651.257 304.261 651.276 304.38 651.27 304.5V327.9C651.275 328.02 651.255 328.139 651.212 328.251C651.169 328.363 651.104 328.464 651.02 328.55C650.941 328.632 650.846 328.696 650.741 328.739C650.636 328.782 650.524 328.803 650.41 328.8H647.6C647.399 328.789 647.204 328.731 647.03 328.63C646.856 328.53 646.709 328.389 646.6 328.22L636.24 312.5V327.98C636.246 328.097 636.226 328.213 636.183 328.322C636.14 328.431 636.074 328.529 635.99 328.61C635.81 328.766 635.578 328.849 635.34 328.84H632.34C632.216 328.835 632.095 328.802 631.986 328.743C631.876 328.685 631.782 328.601 631.71 328.5V328.5Z" fill="#07395B"/>
<path d="M654.83 328.57C654.755 328.502 654.696 328.418 654.656 328.325C654.617 328.232 654.597 328.131 654.6 328.03L654.67 327.71L663.35 304.5C663.414 304.222 663.578 303.977 663.81 303.812C664.042 303.646 664.326 303.571 664.61 303.6H668.53C668.811 303.583 669.09 303.663 669.319 303.827C669.549 303.991 669.715 304.228 669.79 304.5L678.47 327.72C678.483 327.826 678.483 327.934 678.47 328.04C678.474 328.14 678.457 328.239 678.421 328.332C678.385 328.425 678.33 328.509 678.26 328.58C678.196 328.649 678.119 328.704 678.033 328.742C677.947 328.78 677.854 328.8 677.76 328.8H674.62C674.361 328.818 674.104 328.74 673.9 328.58C673.752 328.46 673.64 328.301 673.58 328.12L671.89 323.72H661.19L659.5 328.12C659.43 328.327 659.295 328.505 659.114 328.628C658.934 328.751 658.718 328.811 658.5 328.8H655.37C655.269 328.8 655.169 328.78 655.076 328.741C654.983 328.701 654.899 328.643 654.83 328.57V328.57ZM670.66 319.57L666.55 308.5L662.48 319.62L670.66 319.57Z" fill="#07395B"/>
<path d="M682.1 328.5C682.02 328.42 681.957 328.325 681.914 328.22C681.871 328.115 681.849 328.003 681.85 327.89V304.5C681.847 304.384 681.867 304.268 681.91 304.159C681.953 304.051 682.018 303.953 682.1 303.87C682.27 303.718 682.492 303.636 682.72 303.64H686.06C686.176 303.629 686.293 303.644 686.403 303.684C686.512 303.723 686.612 303.786 686.695 303.868C686.778 303.95 686.842 304.049 686.882 304.158C686.923 304.267 686.939 304.384 686.93 304.5V324.5H698.34C698.46 324.495 698.579 324.515 698.691 324.558C698.803 324.601 698.904 324.666 698.99 324.75C699.074 324.835 699.14 324.937 699.183 325.049C699.226 325.161 699.245 325.28 699.24 325.4V327.92C699.246 328.037 699.226 328.153 699.183 328.262C699.14 328.371 699.074 328.469 698.99 328.55C698.807 328.701 698.577 328.783 698.34 328.78H682.72C682.603 328.779 682.487 328.754 682.38 328.706C682.274 328.657 682.178 328.587 682.1 328.5V328.5Z" fill="#07395B"/>
<path d="M181 371.74C180.918 371.661 180.854 371.566 180.811 371.461C180.768 371.356 180.747 371.244 180.75 371.13V347.69C180.742 347.45 180.828 347.217 180.99 347.04C181.07 346.957 181.167 346.892 181.273 346.849C181.38 346.806 181.495 346.786 181.61 346.79H190.4C197.447 346.79 201.047 350.053 201.2 356.58C201.25 357.97 201.27 358.91 201.27 359.39C201.27 359.87 201.27 360.77 201.2 362.16C201.1 365.493 200.2 367.973 198.5 369.6C196.8 371.227 194.16 372.023 190.58 371.99H181.58C181.472 371.989 181.365 371.966 181.265 371.923C181.165 371.88 181.075 371.818 181 371.74V371.74ZM190.4 367.85C192.4 367.85 193.87 367.4 194.75 366.5C195.63 365.6 196.11 364.12 196.16 362.05C196.21 360.61 196.23 359.71 196.23 359.35C196.23 358.99 196.23 358.08 196.16 356.69C196.266 355.893 196.184 355.082 195.92 354.322C195.656 353.562 195.217 352.875 194.64 352.315C194.063 351.755 193.362 351.338 192.594 351.098C191.827 350.857 191.014 350.8 190.22 350.93H185.75V367.85H190.4Z" fill="#07395B"/>
<path d="M206.28 371.74C206.198 371.661 206.134 371.566 206.091 371.461C206.048 371.356 206.027 371.244 206.03 371.13V347.69C206.027 347.453 206.109 347.223 206.26 347.04C206.343 346.958 206.441 346.893 206.549 346.85C206.658 346.807 206.774 346.787 206.89 346.79H222.73C222.971 346.784 223.205 346.874 223.38 347.04C223.464 347.126 223.529 347.228 223.572 347.339C223.615 347.451 223.635 347.57 223.63 347.69V350.07C223.636 350.187 223.616 350.303 223.573 350.412C223.53 350.521 223.464 350.619 223.38 350.7C223.2 350.856 222.968 350.939 222.73 350.93H210.89V357.3H221.94C222.18 357.292 222.413 357.378 222.59 357.54C222.676 357.62 222.743 357.718 222.786 357.827C222.829 357.936 222.848 358.053 222.84 358.17V360.4C222.846 360.517 222.826 360.633 222.783 360.742C222.74 360.851 222.674 360.949 222.59 361.03C222.407 361.181 222.177 361.263 221.94 361.26H210.89V367.85H223C223.12 367.844 223.239 367.864 223.351 367.907C223.463 367.95 223.564 368.016 223.649 368.101C223.734 368.186 223.8 368.287 223.843 368.399C223.886 368.511 223.906 368.63 223.9 368.75V371.13C223.906 371.247 223.886 371.363 223.843 371.472C223.8 371.581 223.734 371.679 223.65 371.76C223.467 371.911 223.237 371.993 223 371.99H206.89C206.777 371.993 206.664 371.972 206.559 371.929C206.454 371.886 206.359 371.822 206.28 371.74V371.74Z" fill="#07395B"/>
<path d="M241.6 371.74C241.517 371.662 241.451 371.567 241.407 371.462C241.362 371.357 241.339 371.244 241.34 371.13V351.22H234.68C234.567 351.221 234.455 351.199 234.35 351.156C234.246 351.113 234.15 351.05 234.07 350.97C233.988 350.889 233.924 350.793 233.881 350.686C233.838 350.579 233.817 350.465 233.82 350.35V347.69C233.817 347.453 233.899 347.223 234.05 347.04C234.133 346.958 234.231 346.893 234.339 346.85C234.448 346.807 234.564 346.787 234.68 346.79H253C253.241 346.784 253.475 346.874 253.65 347.04C253.734 347.126 253.799 347.228 253.842 347.339C253.885 347.451 253.905 347.57 253.9 347.69V350.35C253.903 350.465 253.882 350.579 253.839 350.686C253.796 350.793 253.732 350.889 253.65 350.97C253.475 351.136 253.241 351.226 253 351.22H246.38V371.13C246.383 371.244 246.362 371.356 246.319 371.461C246.276 371.566 246.212 371.661 246.13 371.74C246.044 371.824 245.943 371.889 245.831 371.932C245.719 371.975 245.6 371.995 245.48 371.99H242.17C242.063 371.988 241.958 371.965 241.86 371.922C241.762 371.879 241.674 371.817 241.6 371.74V371.74Z" fill="#07395B"/>
<path d="M257.83 371.74C257.748 371.661 257.684 371.566 257.641 371.461C257.598 371.356 257.577 371.243 257.58 371.13V347.69C257.577 347.453 257.659 347.222 257.81 347.04C257.893 346.958 257.991 346.893 258.099 346.85C258.208 346.807 258.324 346.787 258.44 346.79H267.77C270.23 346.63 272.668 347.338 274.66 348.79C275.5 349.502 276.162 350.399 276.596 351.411C277.03 352.422 277.223 353.521 277.16 354.62C277.218 356.188 276.773 357.733 275.89 359.03C275.005 360.239 273.764 361.141 272.34 361.61L277.6 370.79C277.663 370.91 277.698 371.044 277.7 371.18C277.705 371.281 277.686 371.383 277.646 371.476C277.607 371.569 277.546 371.653 277.47 371.72C277.333 371.859 277.146 371.938 276.95 371.94H273.67C273.357 371.962 273.045 371.874 272.79 371.69C272.559 371.488 272.368 371.244 272.23 370.97L267.59 362.5H262.59V371.14C262.594 371.252 262.576 371.363 262.537 371.468C262.497 371.573 262.437 371.669 262.36 371.75C262.279 371.834 262.181 371.9 262.072 371.943C261.963 371.986 261.847 372.006 261.73 372H258.45C258.334 372.003 258.219 371.981 258.112 371.936C258.005 371.892 257.909 371.825 257.83 371.74ZM267.66 358.42C268.832 358.494 269.991 358.139 270.92 357.42C271.298 357.06 271.592 356.622 271.782 356.137C271.972 355.651 272.053 355.13 272.02 354.61C272.051 354.084 271.969 353.557 271.779 353.066C271.589 352.574 271.296 352.129 270.92 351.76C269.998 351.028 268.834 350.671 267.66 350.76H262.58V358.39L267.66 358.42Z" fill="#07395B"/>
<path d="M282.06 371.74C281.978 371.661 281.914 371.566 281.871 371.461C281.828 371.356 281.807 371.244 281.81 371.13V347.69C281.798 347.452 281.881 347.218 282.04 347.04C282.123 346.958 282.221 346.893 282.329 346.85C282.438 346.807 282.553 346.787 282.67 346.79H298.51C298.751 346.785 298.984 346.875 299.16 347.04C299.244 347.126 299.309 347.228 299.352 347.339C299.395 347.451 299.415 347.57 299.41 347.69V350.07C299.416 350.187 299.396 350.303 299.353 350.412C299.31 350.521 299.244 350.619 299.16 350.7C298.977 350.851 298.747 350.933 298.51 350.93H286.67V357.3H297.72C297.96 357.292 298.193 357.378 298.37 357.54C298.454 357.622 298.519 357.72 298.562 357.828C298.605 357.937 298.625 358.053 298.62 358.17V360.4C298.623 360.517 298.603 360.632 298.56 360.741C298.517 360.849 298.452 360.948 298.37 361.03C298.187 361.181 297.957 361.263 297.72 361.26H286.67V367.85H298.8C298.92 367.845 299.039 367.865 299.151 367.908C299.262 367.951 299.364 368.016 299.45 368.1C299.615 368.276 299.705 368.509 299.7 368.75V371.13C299.703 371.247 299.683 371.362 299.64 371.471C299.597 371.579 299.532 371.678 299.45 371.76C299.267 371.911 299.037 371.993 298.8 371.99H282.67C282.556 371.993 282.444 371.972 282.339 371.929C282.234 371.886 282.139 371.822 282.06 371.74Z" fill="#07395B"/>
<path d="M304.45 371.74C304.368 371.661 304.304 371.566 304.261 371.461C304.218 371.356 304.197 371.243 304.2 371.13V347.69C304.197 347.453 304.279 347.223 304.43 347.04C304.513 346.958 304.611 346.893 304.719 346.85C304.828 346.807 304.943 346.787 305.06 346.79H307.84C308.065 346.769 308.291 346.826 308.48 346.95C308.635 347.067 308.77 347.209 308.88 347.37L319.25 363.5V347.7C319.247 347.463 319.329 347.233 319.48 347.05C319.563 346.968 319.661 346.903 319.769 346.86C319.878 346.817 319.993 346.797 320.11 346.8H323.11C323.229 346.796 323.348 346.816 323.459 346.86C323.57 346.904 323.671 346.97 323.756 347.054C323.84 347.139 323.906 347.24 323.95 347.351C323.994 347.462 324.014 347.581 324.01 347.7V371.1C324.013 371.22 323.991 371.34 323.947 371.452C323.902 371.563 323.835 371.665 323.75 371.75C323.671 371.832 323.577 371.897 323.472 371.94C323.366 371.983 323.253 372.003 323.14 372H320.33C320.129 371.989 319.934 371.931 319.76 371.83C319.586 371.73 319.439 371.589 319.33 371.42L309 355.65V371.13C309.003 371.247 308.983 371.362 308.94 371.471C308.897 371.579 308.832 371.677 308.75 371.76C308.567 371.911 308.337 371.993 308.1 371.99H305.1C304.98 371.999 304.859 371.981 304.747 371.937C304.635 371.894 304.533 371.827 304.45 371.74V371.74Z" fill="#07395B"/>
<path d="M338.15 371.74C338.067 371.662 338.001 371.567 337.957 371.462C337.912 371.357 337.889 371.244 337.89 371.13V347.69C337.882 347.45 337.968 347.217 338.13 347.04C338.212 346.956 338.31 346.891 338.418 346.848C338.527 346.805 338.643 346.785 338.76 346.79H347.54C354.6 346.79 358.2 350.053 358.34 356.58C358.39 357.97 358.41 358.91 358.41 359.39C358.41 359.87 358.41 360.77 358.34 362.16C358.253 365.493 357.353 367.973 355.64 369.6C353.927 371.227 351.287 372.023 347.72 371.99H338.72C338.613 371.988 338.508 371.965 338.41 371.922C338.312 371.879 338.224 371.817 338.15 371.74V371.74ZM347.54 367.85C349.54 367.85 351.01 367.4 351.9 366.5C352.79 365.6 353.25 364.12 353.3 362.05C353.35 360.61 353.37 359.71 353.37 359.35C353.37 358.99 353.37 358.08 353.3 356.69C353.408 355.892 353.327 355.08 353.064 354.319C352.801 353.559 352.363 352.87 351.785 352.31C351.207 351.749 350.505 351.333 349.737 351.093C348.968 350.853 348.154 350.797 347.36 350.93H342.9V367.85H347.54Z" fill="#07395B"/>
<path d="M363.45 371.74C363.37 371.66 363.307 371.565 363.264 371.46C363.221 371.355 363.2 371.243 363.2 371.13V347.69C363.192 347.45 363.279 347.217 363.44 347.04C363.522 346.956 363.62 346.891 363.729 346.848C363.837 346.805 363.953 346.785 364.07 346.79H379.91C380.029 346.786 380.148 346.806 380.259 346.85C380.371 346.894 380.471 346.96 380.556 347.044C380.64 347.129 380.706 347.23 380.75 347.341C380.794 347.452 380.814 347.571 380.81 347.69V350.07C380.814 350.187 380.793 350.304 380.748 350.413C380.703 350.522 380.636 350.619 380.55 350.7C380.375 350.857 380.145 350.939 379.91 350.93H368.06V357.3H379.11C379.229 357.295 379.348 357.314 379.459 357.355C379.571 357.396 379.673 357.459 379.76 357.54C379.846 357.62 379.913 357.718 379.956 357.827C379.999 357.936 380.018 358.053 380.01 358.17V360.4C380.016 360.517 379.996 360.633 379.953 360.742C379.91 360.851 379.844 360.949 379.76 361.03C379.58 361.186 379.348 361.269 379.11 361.26H368.06V367.85H380.19C380.31 367.845 380.429 367.864 380.541 367.907C380.653 367.95 380.755 368.016 380.84 368.1C380.924 368.186 380.989 368.288 381.032 368.399C381.075 368.511 381.095 368.63 381.09 368.75V371.13C381.096 371.247 381.076 371.363 381.033 371.472C380.99 371.581 380.924 371.679 380.84 371.76C380.66 371.916 380.428 371.998 380.19 371.99H364.07C363.955 371.993 363.841 371.972 363.734 371.929C363.628 371.886 363.531 371.822 363.45 371.74Z" fill="#07395B"/>
<path d="M385.85 371.74C385.767 371.662 385.701 371.567 385.656 371.462C385.611 371.357 385.589 371.244 385.59 371.13V347.65C385.586 347.533 385.607 347.416 385.652 347.307C385.697 347.198 385.764 347.101 385.85 347.02C386.016 346.867 386.234 346.785 386.46 346.79H389.81C389.925 346.781 390.041 346.797 390.149 346.837C390.258 346.877 390.356 346.94 390.438 347.022C390.52 347.104 390.583 347.202 390.623 347.311C390.663 347.419 390.679 347.535 390.67 347.65V367.71H402.08C402.199 367.704 402.319 367.724 402.431 367.767C402.543 367.81 402.644 367.876 402.729 367.961C402.814 368.046 402.88 368.147 402.923 368.259C402.966 368.371 402.985 368.49 402.98 368.61V371.13C402.985 371.247 402.966 371.363 402.923 371.472C402.88 371.581 402.814 371.679 402.73 371.76C402.55 371.916 402.318 371.998 402.08 371.99H386.46C386.346 371.993 386.233 371.973 386.128 371.93C386.023 371.887 385.928 371.822 385.85 371.74V371.74Z" fill="#07395B"/>
<path d="M404.4 371.77C404.325 371.702 404.266 371.618 404.227 371.525C404.187 371.432 404.168 371.331 404.17 371.23L404.24 370.91L412.92 347.69C412.982 347.411 413.145 347.165 413.378 346.999C413.61 346.833 413.896 346.759 414.18 346.79H418.1C418.381 346.775 418.659 346.856 418.888 347.019C419.117 347.183 419.283 347.419 419.36 347.69L428 370.91C428.014 371.016 428.014 371.124 428 371.23C428.004 371.33 427.987 371.429 427.951 371.522C427.915 371.615 427.86 371.699 427.79 371.77C427.725 371.84 427.646 371.895 427.558 371.933C427.47 371.971 427.376 371.99 427.28 371.99H424.15C423.891 372.008 423.635 371.93 423.43 371.77C423.277 371.655 423.165 371.494 423.11 371.31L421.42 366.91H410.72L409.03 371.31C408.961 371.517 408.825 371.696 408.645 371.818C408.464 371.941 408.248 372.001 408.03 371.99H404.89C404.705 371.981 404.53 371.902 404.4 371.77V371.77ZM420.22 362.77L416.12 351.65L412.05 362.77H420.22Z" fill="#07395B"/>
<path d="M431.67 371.74C431.588 371.661 431.524 371.566 431.481 371.461C431.438 371.356 431.417 371.243 431.42 371.13V347.69C431.412 347.45 431.498 347.217 431.66 347.04C431.741 346.956 431.84 346.891 431.948 346.848C432.057 346.805 432.173 346.785 432.29 346.79H435.06C435.288 346.773 435.516 346.829 435.71 346.95C435.859 347.071 435.991 347.212 436.1 347.37L446.47 363.5V347.7C446.467 347.463 446.549 347.233 446.7 347.05C446.783 346.968 446.881 346.903 446.989 346.86C447.098 346.817 447.213 346.797 447.33 346.8H450.33C450.449 346.796 450.568 346.816 450.679 346.86C450.79 346.904 450.891 346.97 450.976 347.054C451.06 347.139 451.126 347.24 451.17 347.351C451.214 347.462 451.234 347.581 451.23 347.7V371.1C451.233 371.22 451.211 371.34 451.166 371.452C451.122 371.563 451.055 371.665 450.97 371.75C450.891 371.832 450.797 371.897 450.691 371.94C450.586 371.983 450.473 372.003 450.36 372H447.55C447.349 371.989 447.154 371.931 446.98 371.83C446.806 371.73 446.659 371.589 446.55 371.42L436.22 355.66V371.14C436.223 371.257 436.203 371.372 436.16 371.481C436.117 371.589 436.052 371.687 435.97 371.77C435.787 371.921 435.557 372.003 435.32 372H432.32C432.199 372.007 432.078 371.987 431.966 371.942C431.854 371.897 431.753 371.828 431.67 371.74V371.74Z" fill="#07395B"/>
<path d="M462.67 371.74C462.589 371.661 462.524 371.566 462.481 371.461C462.438 371.356 462.417 371.244 462.42 371.13V351.22H455.76C455.645 351.223 455.531 351.202 455.424 351.159C455.317 351.117 455.22 351.053 455.139 350.971C455.058 350.89 454.994 350.793 454.951 350.686C454.908 350.579 454.887 350.465 454.89 350.35V347.69C454.882 347.45 454.968 347.217 455.13 347.04C455.212 346.956 455.31 346.891 455.418 346.848C455.527 346.805 455.643 346.785 455.76 346.79H474.12C474.239 346.786 474.358 346.806 474.469 346.85C474.581 346.894 474.681 346.96 474.766 347.044C474.85 347.129 474.916 347.23 474.96 347.341C475.004 347.452 475.024 347.571 475.02 347.69V350.35C475.021 350.466 474.999 350.58 474.954 350.687C474.909 350.793 474.843 350.89 474.76 350.97C474.676 351.053 474.575 351.117 474.466 351.16C474.356 351.203 474.238 351.223 474.12 351.22H467.49V371.13C467.493 371.244 467.472 371.356 467.429 371.461C467.386 371.566 467.322 371.661 467.24 371.74C467.155 371.824 467.053 371.89 466.941 371.933C466.829 371.976 466.71 371.995 466.59 371.99H463.28C463.167 371.993 463.054 371.972 462.949 371.929C462.844 371.886 462.749 371.822 462.67 371.74V371.74Z" fill="#07395B"/>
<path d="M478.9 371.74C478.82 371.66 478.757 371.565 478.714 371.46C478.671 371.355 478.649 371.243 478.65 371.13V347.69C478.642 347.45 478.728 347.217 478.89 347.04C478.971 346.956 479.07 346.891 479.178 346.848C479.287 346.805 479.403 346.785 479.52 346.79H495.36C495.479 346.786 495.598 346.806 495.709 346.85C495.82 346.894 495.921 346.96 496.006 347.044C496.09 347.129 496.156 347.23 496.2 347.341C496.244 347.452 496.264 347.571 496.26 347.69V350.07C496.264 350.187 496.242 350.304 496.198 350.413C496.153 350.522 496.085 350.619 496 350.7C495.824 350.857 495.595 350.939 495.36 350.93H483.51V357.3H494.51C494.629 357.295 494.747 357.314 494.859 357.355C494.97 357.396 495.073 357.459 495.16 357.54C495.246 357.62 495.313 357.718 495.356 357.827C495.399 357.936 495.418 358.053 495.41 358.17V360.4C495.416 360.517 495.396 360.633 495.353 360.742C495.31 360.851 495.244 360.949 495.16 361.03C494.98 361.186 494.748 361.269 494.51 361.26H483.51V367.85H495.64C495.76 367.845 495.879 367.864 495.991 367.907C496.103 367.95 496.205 368.016 496.29 368.1C496.374 368.186 496.439 368.288 496.482 368.399C496.525 368.511 496.545 368.63 496.54 368.75V371.13C496.546 371.247 496.526 371.363 496.483 371.472C496.44 371.581 496.374 371.679 496.29 371.76C496.11 371.916 495.878 371.998 495.64 371.99H479.52C479.405 371.993 479.291 371.972 479.184 371.929C479.077 371.886 478.981 371.822 478.9 371.74Z" fill="#07395B"/>
<path d="M501.3 371.74C501.217 371.662 501.151 371.567 501.107 371.462C501.062 371.357 501.039 371.244 501.04 371.13V347.69C501.032 347.45 501.118 347.217 501.28 347.04C501.362 346.956 501.46 346.891 501.568 346.848C501.677 346.805 501.793 346.785 501.91 346.79H511.23C513.693 346.631 516.134 347.338 518.13 348.79C518.968 349.504 519.629 350.401 520.063 351.412C520.497 352.424 520.691 353.521 520.63 354.62C520.685 356.189 520.237 357.735 519.35 359.03C518.469 360.244 517.226 361.147 515.8 361.61L521.06 370.79C521.126 370.91 521.164 371.043 521.17 371.18C521.173 371.282 521.153 371.384 521.112 371.478C521.07 371.571 521.008 371.654 520.93 371.72C520.863 371.79 520.782 371.845 520.692 371.883C520.603 371.921 520.507 371.94 520.41 371.94H517.14C516.823 371.962 516.509 371.874 516.25 371.69C516.022 371.488 515.835 371.244 515.7 370.97L511.05 362.5H506.05V371.14C506.052 371.253 506.032 371.364 505.991 371.469C505.95 371.574 505.888 371.669 505.81 371.75C505.73 371.836 505.632 371.903 505.523 371.946C505.414 371.989 505.297 372.008 505.18 372H501.91C501.796 372.002 501.682 371.98 501.577 371.935C501.472 371.891 501.378 371.824 501.3 371.74V371.74ZM511.12 358.42C512.292 358.494 513.451 358.139 514.38 357.42C514.757 357.06 515.052 356.623 515.242 356.137C515.432 355.652 515.513 355.13 515.48 354.61C515.511 354.084 515.429 353.558 515.239 353.066C515.049 352.574 514.756 352.129 514.38 351.76C513.458 351.029 512.294 350.672 511.12 350.76H506.05V358.39L511.12 358.42Z" fill="#07395B"/>
<path d="M527.25 369.87C525.43 368.21 524.47 365.75 524.37 362.49C524.37 361.823 524.37 360.803 524.37 359.43C524.37 358.06 524.37 357.03 524.37 356.33C524.47 353.137 525.47 350.69 527.37 348.99C529.544 347.329 532.204 346.429 534.94 346.429C537.676 346.429 540.336 347.329 542.51 348.99C544.4 350.69 545.38 353.14 545.51 356.33C545.56 357.72 545.58 358.75 545.58 359.43C545.58 360.11 545.58 361.09 545.51 362.49C545.39 365.75 544.42 368.21 542.6 369.87C540.77 371.52 538.23 372.35 534.96 372.35C531.69 372.35 529.08 371.5 527.25 369.87ZM538.74 366.75C539.796 365.518 540.346 363.932 540.28 362.31C540.33 360.87 540.36 359.89 540.36 359.39C540.36 358.89 540.36 357.87 540.28 356.47C540.346 354.849 539.796 353.262 538.74 352.03C538.231 351.536 537.625 351.151 536.961 350.9C536.298 350.649 535.589 350.537 534.88 350.57C534.179 350.539 533.479 350.653 532.823 350.904C532.168 351.155 531.571 351.539 531.07 352.03C530.01 353.261 529.457 354.847 529.52 356.47C529.52 357.17 529.52 358.14 529.52 359.39C529.52 360.64 529.52 361.59 529.52 362.31C529.455 363.93 530.001 365.514 531.05 366.75C531.554 367.244 532.154 367.629 532.813 367.88C533.472 368.131 534.176 368.244 534.88 368.21C535.589 368.244 536.298 368.131 536.961 367.88C537.625 367.629 538.231 367.244 538.74 366.75V366.75Z" fill="#07395B"/>
<path d="M295 221.5C295.5 220 288.5 216 287.5 214C286.5 212 286 210.5 287 209.5C288 208.5 295 203.5 295 202.5C295 201.5 294 150.5 295.5 145C297 139.5 304 129.5 317 131.5C330 133.5 365 147.5 367.5 158C370 168.5 363.5 177 360 180.5C356.5 184 312.5 205 313.5 207C314.5 209 324.5 219 337.5 229C350.5 239 359.5 248 362.5 248C365.5 248 364.5 245 365.5 244C366.5 243 370.5 239 369.5 238C368.5 237 365.5 233 365.5 230C365.5 227 369.5 223 372.5 224C376.5 220 406.5 194 408.5 193C410.5 192 417.5 186.4 421.5 189.7C425.5 193.3 422.5 198 422.5 198C422.5 198 384.5 234 383.5 236C382.5 238 382.5 241 390.5 234C398.5 227 411.5 215 416.5 215C421.5 215 420.5 217 420.5 219C420.5 221 419.5 236 424.5 237C429.5 238 441.5 221 446.5 216C451.5 211 465.5 197 469.5 197C473.5 197 473.5 202 471.5 211C469.5 220 468.5 226 477.5 216C486.5 206 499.5 193 503.5 193C507.5 193 508.5 194 507.5 204C506.5 214 496.5 236 510.5 220C524.5 204 528.5 210 529.5 212C530.5 214 537.5 224 535.5 221C533.5 218 544.5 237 547.5 231C550.5 225 552.5 224 555.5 223C558.5 222 580.5 199 581.5 197C582.5 195 589.5 194 590.5 196C591.5 198 587.5 201.09 591.5 201C595.5 200.91 600.5 198 606.5 201C612.5 204 613.5 209 612.5 215C611.5 221 604.63 231 608.5 232C612.37 233 617.5 226 629.5 214C641.5 202 650.5 193 653.5 192C656.5 191 663.5 191 663.5 196C663.5 201 656.5 231 656.5 231C656.5 231 650.93 249 659.21 238C667.49 227 669.5 230 670.5 234C671.5 238 671.5 239 671.5 240C671.5 241 641.5 263 638.5 262C635.5 261 632.5 248 632.5 241C632.5 234 635.5 233 638.5 234C641.5 235 643.5 241 643.5 236C643.5 231 647.5 215 645.5 213C643.5 211 623.5 228 616.5 237C608.5 245 606.5 248 602.5 248C598.5 248 596.5 243 595.5 244C594.5 245 586.5 255 579.5 255C572.5 255 564.5 255 561.5 250C558.5 245 557.5 239 560.5 234C560.5 231 559.89 229 551.7 237.5C543.51 246 544.5 246 536.5 243C528.5 240 524.5 228 519.5 228C514.5 228 503.5 238 497.5 247C491.5 256 488.5 256 487.5 256C486.5 256 481.5 255 484.5 246C487.5 237 492.5 222 489.5 219C486.5 216 454.5 252 453.5 253C452.5 254 444.5 257 449.5 241C454.5 225 455.5 221 450.5 225C445.5 229 428.5 251 421.5 251C414.5 251 409.5 249 407.5 241C405.5 233 408.5 231 406.5 232C404.5 233 383.5 254 379.5 255C375.5 256 372.5 254 372.5 257C372.5 260 373.5 264 371.5 266C369.5 268 316.5 234 312.5 231C308.5 228 305.5 224 303.5 240C301.5 256 301.5 261 296.5 259C291.5 257 291.5 253 291.5 251C291.5 249 294.5 223 295 221.5Z" fill="#3D4F8D"/>
<path d="M304.5 162C304.5 162 301.5 153 308.5 151C315.5 149 333.5 152 342.5 158C351.5 164 354.5 168 349.5 173C344.5 178 310.5 205 310.5 194C316.5 166 318.5 167 316.5 164C314.5 161 312.5 159 310.5 160C308.5 161 306.5 165 304.5 162Z" fill="white"/>
<path d="M576.5 243C583.5 245 593.5 238 597.5 230C601.5 222 599.5 214 594.5 215C589.5 216 587.5 217 583.5 223C583.5 224 581.5 224 579.5 225C577.5 226 569.5 241 576.5 243Z" fill="white" stroke="black" stroke-miterlimit="10"/>
<path d="M143.5 126C143.5 126 204.5 131 208.5 134C212.5 137 226.5 165 226.5 165L228.9 176L233.5 197V223.07H143.5V126Z" fill="#C44358" stroke="#C44358" stroke-miterlimit="10" stroke-linecap="round"/>
<path d="M233.5 167C236.5 166 249.89 166 250.7 167C251.51 168 252.5 181 251.5 182C250.5 183 229.5 190 229.5 190L226.5 176C226.5 176 230.5 176 231.5 173C232.5 170 230.5 168 233.5 167Z" fill="#C44358"/>
<path d="M209 223.5C216.18 223.5 222 219.471 222 214.5C222 209.529 216.18 205.5 209 205.5C201.82 205.5 196 209.529 196 214.5C196 219.471 201.82 223.5 209 223.5Z" fill="#FDE2EC"/>
<path d="M143.5 201H186.5C187.03 201 187.539 201.211 187.914 201.586C188.289 201.961 188.5 202.47 188.5 203V207C188.5 207.53 188.289 208.039 187.914 208.414C187.539 208.789 187.03 209 186.5 209H143.5V201Z" fill="white"/>
<path d="M143.5 219H187.5C188.03 219 188.539 219.211 188.914 219.586C189.289 219.961 189.5 220.47 189.5 221V224H143.5V219Z" fill="white"/>
<path d="M52.5 226H233.5V234C233.5 235.857 232.763 237.637 231.45 238.95C230.137 240.263 228.357 241 226.5 241H59.5C57.6435 241 55.863 240.263 54.5503 238.95C53.2375 237.637 52.5 235.857 52.5 234V226Z" fill="#C44358" stroke="#C44358" stroke-miterlimit="10"/>
<path d="M94.21 244H66.79C65.5253 244 64.5 245.025 64.5 246.29V269.71C64.5 270.975 65.5253 272 66.79 272H94.21C95.4747 272 96.5 270.975 96.5 269.71V246.29C96.5 245.025 95.4747 244 94.21 244Z" fill="#C44358" stroke="#C44358" stroke-miterlimit="10"/>
<path d="M222.21 244H194.79C193.525 244 192.5 245.025 192.5 246.29V269.71C192.5 270.975 193.525 272 194.79 272H222.21C223.475 272 224.5 270.975 224.5 269.71V246.29C224.5 245.025 223.475 244 222.21 244Z" fill="#C44358" stroke="#C44358" stroke-miterlimit="10"/>
<path d="M89 250C93.6944 250 97.5 246.194 97.5 241.5C97.5 236.806 93.6944 233 89 233C84.3056 233 80.5 236.806 80.5 241.5C80.5 246.194 84.3056 250 89 250Z" fill="#FDE2EC"/>
<path d="M191 251C195.694 251 199.5 247.194 199.5 242.5C199.5 237.806 195.694 234 191 234C186.306 234 182.5 237.806 182.5 242.5C182.5 247.194 186.306 251 191 251Z" fill="#FDE2EC"/>
<path d="M142.85 126C142.85 126 81.8501 131 77.8501 134C73.8501 137 59.8501 165 59.8501 165L57.4501 176L52.8501 197V223.07H142.85V126Z" fill="#C44358" stroke="#C44358" stroke-linecap="round" stroke-linejoin="round"/>
<path d="M52.85 167C49.85 166 36.46 166 35.65 167C34.84 168 33.85 181 34.85 182C35.85 183 56.85 190 56.85 190L59.85 176C59.85 176 55.85 176 54.85 173C53.85 170 55.85 168 52.85 167Z" fill="#C44358"/>
<path d="M78 223.5C85.1797 223.5 91 219.471 91 214.5C91 209.529 85.1797 205.5 78 205.5C70.8203 205.5 65 209.529 65 214.5C65 219.471 70.8203 223.5 78 223.5Z" fill="#FDE2EC"/>
<path d="M206.26 138.93C207.5 140.1 217.13 160.5 218.12 162.5C218.12 164.5 220.12 176.36 218.12 177.22C216.12 178.08 143.53 176.82 143.53 176.82L143 135C143 135 205 137.75 206.26 138.93Z" fill="white"/>
<path d="M80.1999 138.93C78.9499 140.1 69.1999 160.52 68.1999 162.48C68.1999 164.48 66.1999 176.34 68.1999 177.2C70.1999 178.06 143.42 176.8 143.42 176.8L143.96 135C143.96 135 81.4499 137.75 80.1999 138.93Z" fill="white"/>
<path d="M144 209H99.85C99.3196 209 98.8109 208.789 98.4358 208.414C98.0607 208.039 97.85 207.53 97.85 207V203C97.85 202.47 98.0607 201.961 98.4358 201.586C98.8109 201.211 99.3196 201 99.85 201H144V209Z" fill="white"/>
<path d="M144 224H97.85C97.5848 224 97.3304 223.895 97.1429 223.707C96.9554 223.52 96.85 223.265 96.85 223V221C96.85 220.47 97.0607 219.961 97.4358 219.586C97.8109 219.211 98.3196 219 98.85 219H144V224Z" fill="white"/>
<path d="M144 135L156.99 177H131.01L144 135Z" fill="white"/>
</svg>
