<svg xmlns="http://www.w3.org/2000/svg" viewBox="0 0 729.5 404.5"><defs><style>.cls-1,.cls-5{fill:#fff;}.cls-2{fill:#27255e;}.cls-3{fill:#07395b;}.cls-4{fill:#3d4f8d;}.cls-5{stroke:#000;}.cls-5,.cls-6,.cls-9{stroke-miterlimit:10;}.cls-10,.cls-6,.cls-7,.cls-9{fill:#c44358;}.cls-10,.cls-6,.cls-9{stroke:#c44358;}.cls-10,.cls-6{stroke-linecap:round;}.cls-8{fill:#fde2ec;}.cls-10{stroke-linejoin:round;}</style></defs><g id="Capa_2" data-name="Capa 2"><rect class="cls-1" width="729.5" height="404.5"/><path class="cls-2" d="M94.47,195.77a1.8,1.8,0,0,1-.59-1.3,2.73,2.73,0,0,1,.09-.81l21.15-57.78a3.27,3.27,0,0,1,1.17-1.8,3.63,3.63,0,0,1,2.34-.72H132a3.63,3.63,0,0,1,2.34.72,3.27,3.27,0,0,1,1.17,1.8l21.06,57.78.18.81a1.79,1.79,0,0,1-.58,1.3,1.92,1.92,0,0,1-1.4.59H143.65a2.8,2.8,0,0,1-2.88-1.89l-3.51-9.18h-24l-3.42,9.18a2.86,2.86,0,0,1-3,1.89H95.77A1.8,1.8,0,0,1,94.47,195.77Zm39.19-23.44-8.37-23.76-8.37,23.76Z" transform="translate(-26 -101.5)"/><path class="cls-2" d="M169,191.05q-7.16-6.21-7.16-18.72V135.61a2.12,2.12,0,0,1,.68-1.62,2.22,2.22,0,0,1,1.57-.63h11.61a2.36,2.36,0,0,1,1.67.63,2.11,2.11,0,0,1,.67,1.62v36.63q0,5.85,2.75,8.77t8,2.93q5.13,0,7.92-3t2.79-8.73V135.61a2.12,2.12,0,0,1,.68-1.62,2.22,2.22,0,0,1,1.57-.63h11.7a2.16,2.16,0,0,1,2.25,2.25v36.72q0,12.51-7.15,18.72t-19.67,6.21Q176.14,197.26,169,191.05Z" transform="translate(-26 -101.5)"/><path class="cls-2" d="M242.16,195.68a2.15,2.15,0,0,1-.68-1.57V147.49h-16a2.33,2.33,0,0,1-2.25-2.25v-9.63a2.12,2.12,0,0,1,.68-1.62,2.21,2.21,0,0,1,1.57-.63h48.42a2.16,2.16,0,0,1,2.25,2.25v9.63a2.16,2.16,0,0,1-2.25,2.25h-16v46.62a2.22,2.22,0,0,1-.63,1.57,2.12,2.12,0,0,1-1.62.68H243.73A2.15,2.15,0,0,1,242.16,195.68Z" transform="translate(-26 -101.5)"/><path class="cls-2" d="M289.09,191.05q-7.29-6.21-7.74-18.27-.09-2.61-.09-7.74t.09-7.83q.45-11.88,7.88-18.32t19.84-6.43q12.42,0,19.89,6.43t7.83,18.32q.18,5.22.18,7.83t-.18,7.74q-.45,12.06-7.74,18.27t-20,6.21Q296.38,197.26,289.09,191.05ZM317,181.33q2.91-3,3.1-9.09.18-5.22.18-7.38,0-2.34-.18-7.38-.18-6.12-3.15-9.09a10.59,10.59,0,0,0-7.83-3,10.41,10.41,0,0,0-7.78,3q-2.94,3-3.2,9.09Q298,160,298,164.86t.09,7.38q.27,6.12,3.15,9.09a10.4,10.4,0,0,0,7.83,3A10.56,10.56,0,0,0,317,181.33Z" transform="translate(-26 -101.5)"/><path class="cls-2" d="M348.08,195.68a2.14,2.14,0,0,1-.67-1.57v-58.5a2.11,2.11,0,0,1,.67-1.62,2.25,2.25,0,0,1,1.58-.63h25.2q11.52,0,18.13,5.31t6.62,15.48q0,10.08-6.57,15.16t-18.18,5.09H364.15v19.71a2.12,2.12,0,0,1-.68,1.62,2.34,2.34,0,0,1-1.66.63H349.66A2.17,2.17,0,0,1,348.08,195.68ZM374.41,162a9,9,0,0,0,6.21-2,7.63,7.63,0,0,0,2.25-6,8.17,8.17,0,0,0-2.12-5.9q-2.12-2.2-6.34-2.2H363.88V162Z" transform="translate(-26 -101.5)"/><path class="cls-2" d="M399,195.77a1.79,1.79,0,0,1-.58-1.3,2.73,2.73,0,0,1,.09-.81l21.15-57.78a3.27,3.27,0,0,1,1.17-1.8,3.63,3.63,0,0,1,2.34-.72h13.32a3.63,3.63,0,0,1,2.34.72,3.27,3.27,0,0,1,1.17,1.8l21.06,57.78.18.81a1.8,1.8,0,0,1-.59,1.3,1.9,1.9,0,0,1-1.39.59H448.21a2.8,2.8,0,0,1-2.88-1.89l-3.51-9.18h-24l-3.42,9.18a2.86,2.86,0,0,1-3,1.89H400.33A1.82,1.82,0,0,1,399,195.77Zm39.2-23.44-8.37-23.76-8.37,23.76Z" transform="translate(-26 -101.5)"/><path class="cls-2" d="M469,195.68a2.14,2.14,0,0,1-.67-1.57v-58.5A2.11,2.11,0,0,1,469,134a2.25,2.25,0,0,1,1.58-.63H495.1q11.79,0,18.4,5.35t6.62,15.17a18.73,18.73,0,0,1-3,10.71,19,19,0,0,1-8.19,6.75l12.33,22.14a2.24,2.24,0,0,1,.27,1,2,2,0,0,1-1.89,1.89h-12a3.76,3.76,0,0,1-3.69-2.43l-10.26-19.8h-9.18v20a2.12,2.12,0,0,1-.68,1.62,2.34,2.34,0,0,1-1.66.63H470.62A2.17,2.17,0,0,1,469,195.68Zm25.88-34.33q4.14,0,6.3-2a7.32,7.32,0,0,0,2.16-5.62,7.74,7.74,0,0,0-2.12-5.72q-2.11-2.11-6.34-2.11H484.57v15.48Z" transform="translate(-26 -101.5)"/><path class="cls-2" d="M544.46,195.68a2.14,2.14,0,0,1-.67-1.57V147.49h-16a2.33,2.33,0,0,1-2.25-2.25v-9.63a2.12,2.12,0,0,1,.68-1.62,2.21,2.21,0,0,1,1.57-.63h48.42a2.16,2.16,0,0,1,2.25,2.25v9.63a2.16,2.16,0,0,1-2.25,2.25h-16v46.62a2.22,2.22,0,0,1-.63,1.57,2.12,2.12,0,0,1-1.62.68H546A2.19,2.19,0,0,1,544.46,195.68Z" transform="translate(-26 -101.5)"/><path class="cls-2" d="M587.3,195.68a2.14,2.14,0,0,1-.67-1.57v-58.5a2.11,2.11,0,0,1,.67-1.62,2.25,2.25,0,0,1,1.58-.63h42a2.16,2.16,0,0,1,2.25,2.25v8.46a2.22,2.22,0,0,1-.63,1.57,2.12,2.12,0,0,1-1.62.68H602.2v12.15h26.73a2.11,2.11,0,0,1,1.62.67,2.36,2.36,0,0,1,.63,1.67v7.83a2.22,2.22,0,0,1-.63,1.57,2.12,2.12,0,0,1-1.62.68H602.2V183.4h29.43a2.16,2.16,0,0,1,2.25,2.25v8.46a2.22,2.22,0,0,1-.63,1.57,2.12,2.12,0,0,1-1.62.68H588.88A2.17,2.17,0,0,1,587.3,195.68Z" transform="translate(-26 -101.5)"/><path class="cls-2" d="M653,194.74a21.53,21.53,0,0,1-9.23-6.62,15.47,15.47,0,0,1-3.28-9,1.81,1.81,0,0,1,.58-1.31,1.91,1.91,0,0,1,1.4-.58h11.34a3.36,3.36,0,0,1,1.75.4,6.25,6.25,0,0,1,1.4,1.22,9.35,9.35,0,0,0,3.78,3.87,13.64,13.64,0,0,0,6.93,1.53q5.13,0,7.83-1.62a5,5,0,0,0,2.7-4.41,4.17,4.17,0,0,0-1.4-3.24,12.42,12.42,0,0,0-4.36-2.25,89.8,89.8,0,0,0-8.82-2.25q-10.8-2.25-16.16-6.62t-5.35-12.46a16.56,16.56,0,0,1,3.06-9.81,20,20,0,0,1,8.73-6.75,33.37,33.37,0,0,1,13.23-2.43,31.75,31.75,0,0,1,13.59,2.7,22.37,22.37,0,0,1,8.77,6.79,14.81,14.81,0,0,1,3.2,8.06,1.85,1.85,0,0,1-1.89,1.89H678.88a3.74,3.74,0,0,1-1.76-.36,3.43,3.43,0,0,1-1.21-1.17,5.94,5.94,0,0,0-2.93-3.51,13.42,13.42,0,0,0-12.1,0,4.76,4.76,0,0,0-2.16,4.23,4.35,4.35,0,0,0,1.21,3.15,10.82,10.82,0,0,0,4,2.29,56.7,56.7,0,0,0,7.88,2.12,57.56,57.56,0,0,1,13.36,3.82A16.92,16.92,0,0,1,691.34,188a21.83,21.83,0,0,1-9.63,6.84,43.32,43.32,0,0,1-28.75-.13Z" transform="translate(-26 -101.5)"/><path class="cls-3" d="M55.36,430a.82.82,0,0,1-.25-.61V406a1,1,0,0,1,.23-.65.82.82,0,0,1,.63-.25h8.79q10.58,0,10.8,9.79c0,1.39.07,2.33.07,2.81s0,1.38-.07,2.77q-.15,5-2.7,7.44t-7.92,2.39H56A.82.82,0,0,1,55.36,430Zm9.4-3.89q3,0,4.35-1.35c.89-.9,1.36-2.38,1.41-4.45,0-1.44.07-2.34.07-2.7s0-1.27-.07-2.66a6.13,6.13,0,0,0-1.5-4.36,6.14,6.14,0,0,0-4.44-1.4H60.11v16.92Z" transform="translate(-26 -101.5)"/><path class="cls-3" d="M80.67,430a.82.82,0,0,1-.25-.61V406a.82.82,0,0,1,.25-.63.87.87,0,0,1,.61-.23h3.38a.81.81,0,0,1,.87.86v23.48a.85.85,0,0,1-.24.61.79.79,0,0,1-.63.25H81.28A.81.81,0,0,1,80.67,430Z" transform="translate(-26 -101.5)"/><path class="cls-3" d="M94.42,429.68a8.18,8.18,0,0,1-3.49-2.56,5.85,5.85,0,0,1-1.26-3.42.72.72,0,0,1,.75-.75h3.21a1.13,1.13,0,0,1,.66.16,1.58,1.58,0,0,1,.45.52,3.67,3.67,0,0,0,1.66,2.05,6.51,6.51,0,0,0,3.53.83,7.07,7.07,0,0,0,3.85-.85,2.66,2.66,0,0,0,1.29-2.35,2.21,2.21,0,0,0-.66-1.66,5.7,5.7,0,0,0-2-1.12c-.88-.31-2.18-.69-3.91-1.15a14.94,14.94,0,0,1-6.21-2.68,5.93,5.93,0,0,1-2-4.77,6.36,6.36,0,0,1,1.13-3.71,7.56,7.56,0,0,1,3.28-2.55,12.27,12.27,0,0,1,5-.94,11.74,11.74,0,0,1,5.11,1,8.56,8.56,0,0,1,3.29,2.61,5.8,5.8,0,0,1,1.21,3.12.73.73,0,0,1-.76.75h-3.35a1,1,0,0,1-1-.68,2.9,2.9,0,0,0-1.44-1.93,5.57,5.57,0,0,0-3-.77,5.67,5.67,0,0,0-3.17.76,2.68,2.68,0,0,0-.58,3.85,5,5,0,0,0,1.82,1.15,30.42,30.42,0,0,0,3.58,1.12,25,25,0,0,1,5.06,1.62,6.64,6.64,0,0,1,2.79,2.26,6.27,6.27,0,0,1,.9,3.5,6.53,6.53,0,0,1-1.28,4,7.92,7.92,0,0,1-3.6,2.61,14.72,14.72,0,0,1-5.34.9A14.07,14.07,0,0,1,94.42,429.68Z" transform="translate(-26 -101.5)"/><path class="cls-3" d="M119.8,430a.82.82,0,0,1-.25-.61V409.52h-6.66a.85.85,0,0,1-.61-.25.85.85,0,0,1-.26-.62V406a.92.92,0,0,1,.24-.65.79.79,0,0,1,.63-.25h18.36a.84.84,0,0,1,.64.25.89.89,0,0,1,.26.65v2.66a.85.85,0,0,1-.26.62.88.88,0,0,1-.64.25h-6.63v19.91a.82.82,0,0,1-.25.61.87.87,0,0,1-.65.25h-3.31A.82.82,0,0,1,119.8,430Z" transform="translate(-26 -101.5)"/><path class="cls-3" d="M136,430a.83.83,0,0,1-.26-.61V406a.92.92,0,0,1,.24-.65.79.79,0,0,1,.63-.25H146a10.57,10.57,0,0,1,6.9,2.05,7.14,7.14,0,0,1,2.5,5.83,7.35,7.35,0,0,1-1.28,4.41,7.13,7.13,0,0,1-3.55,2.58l5.26,9.18a.89.89,0,0,1,.11.39.68.68,0,0,1-.24.54.72.72,0,0,1-.52.22h-3.28A1.36,1.36,0,0,1,151,430a2.54,2.54,0,0,1-.56-.72l-4.64-8.53h-5v8.64a.85.85,0,0,1-.24.61.79.79,0,0,1-.63.25h-3.27A.81.81,0,0,1,136,430Zm9.82-13.32a4.83,4.83,0,0,0,3.26-1,3.57,3.57,0,0,0,1.1-2.81,3.69,3.69,0,0,0-1.1-2.85,4.68,4.68,0,0,0-3.26-1h-5.07v7.63Z" transform="translate(-26 -101.5)"/><path class="cls-3" d="M160.26,430a.82.82,0,0,1-.25-.61V406a.82.82,0,0,1,.25-.63.89.89,0,0,1,.61-.23h3.39a.8.8,0,0,1,.86.86v23.48a.89.89,0,0,1-.23.61.82.82,0,0,1-.63.25h-3.39A.82.82,0,0,1,160.26,430Z" transform="translate(-26 -101.5)"/><path class="cls-3" d="M171,430a.83.83,0,0,1-.26-.61V406a.92.92,0,0,1,.24-.65.79.79,0,0,1,.63-.25h10.44q4.21,0,6.28,1.85a6.46,6.46,0,0,1,2.07,5.06,5.46,5.46,0,0,1-.92,3.19,5.53,5.53,0,0,1-2.14,1.89,6,6,0,0,1,2.54,2.23,6.27,6.27,0,0,1,1,3.53,7,7,0,0,1-2.25,5.4,9,9,0,0,1-6.31,2.05H171.64A.81.81,0,0,1,171,430Zm10.4-14.62a4,4,0,0,0,2.84-.9,3.12,3.12,0,0,0,1-2.41,3,3,0,0,0-1-2.39,4.16,4.16,0,0,0-2.84-.85h-5.65v6.55Zm.36,11.05a4,4,0,0,0,2.92-1,3.54,3.54,0,0,0,1-2.61,3.59,3.59,0,0,0-1-2.65,4,4,0,0,0-2.92-1h-6v7.3Z" transform="translate(-26 -101.5)"/><path class="cls-3" d="M198,428.17q-2.7-2.49-2.7-7.53V406a.92.92,0,0,1,.24-.65.79.79,0,0,1,.63-.25h3.27a.79.79,0,0,1,.63.25.92.92,0,0,1,.24.65v14.65a6.14,6.14,0,0,0,1.36,4.34,5.1,5.1,0,0,0,3.89,1.46,5,5,0,0,0,3.87-1.46,6.18,6.18,0,0,0,1.35-4.34V406a.89.89,0,0,1,.26-.65.84.84,0,0,1,.64-.25h3.24a.79.79,0,0,1,.63.25.92.92,0,0,1,.24.65v14.65c0,3.36-.9,5.87-2.68,7.53s-4.31,2.48-7.55,2.48S199.75,429.82,198,428.17Z" transform="translate(-26 -101.5)"/><path class="cls-3" d="M221.39,430a.82.82,0,0,1-.25-.61V406a.82.82,0,0,1,.25-.63.89.89,0,0,1,.61-.23h3.39a.8.8,0,0,1,.86.86v23.48a.89.89,0,0,1-.23.61.82.82,0,0,1-.63.25H222A.82.82,0,0,1,221.39,430Z" transform="translate(-26 -101.5)"/><path class="cls-3" d="M232.15,430a.86.86,0,0,1-.25-.61V406a.92.92,0,0,1,.24-.65.79.79,0,0,1,.63-.25h8.78q10.59,0,10.8,9.79c.05,1.39.07,2.33.07,2.81s0,1.38-.07,2.77q-.15,5-2.7,7.44t-7.92,2.39h-9A.84.84,0,0,1,232.15,430Zm9.4-3.89c2,0,3.47-.45,4.36-1.35s1.35-2.38,1.4-4.45c.05-1.44.07-2.34.07-2.7s0-1.27-.07-2.66a5.14,5.14,0,0,0-5.94-5.76h-4.46v16.92Z" transform="translate(-26 -101.5)"/><path class="cls-3" d="M259.26,428.17q-2.73-2.49-2.88-7.38c0-.7,0-1.72,0-3.06s0-2.4,0-3.1q.15-4.78,2.95-7.34a12.47,12.47,0,0,1,15.14,0q2.82,2.55,3,7.34c.05,1.39.07,2.42.07,3.1s0,1.66-.07,3.06q-.18,4.89-2.91,7.38c-1.83,1.65-4.37,2.48-7.64,2.48S261.08,429.82,259.26,428.17Zm11.49-3.12a6.42,6.42,0,0,0,1.54-4.44c0-1.44.08-2.42.08-2.92s0-1.52-.08-2.92a6.42,6.42,0,0,0-1.54-4.44,5.19,5.19,0,0,0-3.86-1.46,5.12,5.12,0,0,0-3.81,1.46,6.42,6.42,0,0,0-1.55,4.44c0,.7,0,1.67,0,2.92s0,2.2,0,2.92a6.46,6.46,0,0,0,1.53,4.44,5.12,5.12,0,0,0,3.83,1.46A5.19,5.19,0,0,0,270.75,425.05Z" transform="translate(-26 -101.5)"/><path class="cls-3" d="M282.48,430a.82.82,0,0,1-.25-.61V406a1,1,0,0,1,.23-.65.82.82,0,0,1,.63-.25h9.33a10.56,10.56,0,0,1,6.89,2.05,7.11,7.11,0,0,1,2.5,5.83,7.35,7.35,0,0,1-1.27,4.41A7.18,7.18,0,0,1,297,420l5.26,9.18a.87.87,0,0,1,.1.39.71.71,0,0,1-.23.54.74.74,0,0,1-.52.22h-3.28a1.34,1.34,0,0,1-.88-.25,2.54,2.54,0,0,1-.56-.72l-4.64-8.53h-5v8.64a.89.89,0,0,1-.23.61.82.82,0,0,1-.63.25h-3.28A.82.82,0,0,1,282.48,430Zm9.83-13.32a4.84,4.84,0,0,0,3.26-1,3.57,3.57,0,0,0,1.1-2.81,3.69,3.69,0,0,0-1.1-2.85,4.69,4.69,0,0,0-3.26-1h-5.08v7.63Z" transform="translate(-26 -101.5)"/><path class="cls-3" d="M304.39,430.07a.68.68,0,0,1-.24-.54l.07-.32L312.9,406a1.17,1.17,0,0,1,1.26-.9h3.92a1.23,1.23,0,0,1,1.26.9L328,429.21a1.19,1.19,0,0,1,0,.32.74.74,0,0,1-.22.54.66.66,0,0,1-.5.22H324.2a1,1,0,0,1-1-.68l-1.69-4.4H310.78l-1.7,4.4a1,1,0,0,1-1,.68h-3.13A.72.72,0,0,1,304.39,430.07Zm15.82-9L316.1,410,312,421.07Z" transform="translate(-26 -101.5)"/><path class="cls-3" d="M339,430.06a.86.86,0,0,1-.25-.63V406a.92.92,0,0,1,.25-.65.88.88,0,0,1,.65-.25h2.85a1.12,1.12,0,0,1,1.08.68l6.94,13,7-13a1.16,1.16,0,0,1,1.08-.68h2.81a.87.87,0,0,1,.65.25.88.88,0,0,1,.25.65v23.44a.82.82,0,0,1-.25.63.94.94,0,0,1-.65.23h-3a.81.81,0,0,1-.61-.25.83.83,0,0,1-.26-.61V413.84l-5,9.61a1.38,1.38,0,0,1-1.22.79h-1.48a1.38,1.38,0,0,1-1.22-.79l-5-9.61v15.59a.89.89,0,0,1-.23.61.82.82,0,0,1-.63.25h-3A1,1,0,0,1,339,430.06Z" transform="translate(-26 -101.5)"/><path class="cls-3" d="M365.84,430.07a.68.68,0,0,1-.24-.54l.08-.32L374.35,406a1.17,1.17,0,0,1,1.26-.9h3.93a1.24,1.24,0,0,1,1.26.9l8.67,23.22a.89.89,0,0,1,0,.32.7.7,0,0,1-.22.54.66.66,0,0,1-.5.22h-3.13a1,1,0,0,1-.72-.22,1,1,0,0,1-.33-.46l-1.69-4.4H372.23l-1.69,4.4a1.06,1.06,0,0,1-1.05.68h-3.13A.72.72,0,0,1,365.84,430.07Zm15.82-9L377.56,410l-4.07,11.12Z" transform="translate(-26 -101.5)"/><path class="cls-3" d="M397,430a.83.83,0,0,1-.26-.61v-8.14l-8.49-15.05a.77.77,0,0,1-.11-.39.7.7,0,0,1,.22-.54.66.66,0,0,1,.5-.22h3.2a1,1,0,0,1,.67.22,1.58,1.58,0,0,1,.41.46l6.12,10.48,6.09-10.48a1.29,1.29,0,0,1,1.11-.68h3.17a.75.75,0,0,1,.76.76.77.77,0,0,1-.11.39l-8.5,15.05v8.14a.82.82,0,0,1-.25.61.87.87,0,0,1-.65.25h-3.27A.81.81,0,0,1,397,430Z" transform="translate(-26 -101.5)"/><path class="cls-3" d="M415,428.17c-1.82-1.66-2.79-4.12-2.88-7.38,0-.7,0-1.72,0-3.06s0-2.4,0-3.1a9.82,9.82,0,0,1,2.95-7.34,12.47,12.47,0,0,1,15.14,0q2.82,2.55,3,7.34c.05,1.39.07,2.42.07,3.1s0,1.66-.07,3.06q-.18,4.89-2.92,7.38t-7.63,2.48C419.33,430.65,416.78,429.82,415,428.17Zm11.48-3.12a6.42,6.42,0,0,0,1.55-4.44c.05-1.44.07-2.42.07-2.92s0-1.52-.07-2.92a6.42,6.42,0,0,0-1.55-4.44,5.75,5.75,0,0,0-7.66,0,6.42,6.42,0,0,0-1.55,4.44c0,.7,0,1.67,0,2.92s0,2.2,0,2.92a6.46,6.46,0,0,0,1.53,4.44,5.11,5.11,0,0,0,3.83,1.46A5.17,5.17,0,0,0,426.44,425.05Z" transform="translate(-26 -101.5)"/><path class="cls-3" d="M438.18,430a.82.82,0,0,1-.25-.61V406a.91.91,0,0,1,.23-.65.82.82,0,0,1,.63-.25h9.33a10.56,10.56,0,0,1,6.89,2.05,7.11,7.11,0,0,1,2.5,5.83,7.35,7.35,0,0,1-1.28,4.41,7.11,7.11,0,0,1-3.54,2.58l5.25,9.18a.77.77,0,0,1,.11.39.71.71,0,0,1-.23.54.74.74,0,0,1-.53.22H454a1.32,1.32,0,0,1-.88-.25,2.37,2.37,0,0,1-.56-.72l-4.64-8.53h-5v8.64a.89.89,0,0,1-.23.61.82.82,0,0,1-.63.25h-3.28A.82.82,0,0,1,438.18,430ZM448,416.72a4.84,4.84,0,0,0,3.26-1,3.57,3.57,0,0,0,1.09-2.81,3.69,3.69,0,0,0-1.09-2.85,4.69,4.69,0,0,0-3.26-1h-5.08v7.63Z" transform="translate(-26 -101.5)"/><path class="cls-3" d="M462.41,430a.83.83,0,0,1-.26-.61V406a.83.83,0,0,1,.26-.63.87.87,0,0,1,.61-.23h3.38a.81.81,0,0,1,.87.86v23.48a.85.85,0,0,1-.24.61.79.79,0,0,1-.63.25H463A.81.81,0,0,1,462.41,430Z" transform="translate(-26 -101.5)"/><path class="cls-3" d="M476.16,429.68a8.18,8.18,0,0,1-3.49-2.56,5.92,5.92,0,0,1-1.26-3.42.72.72,0,0,1,.75-.75h3.21a1.11,1.11,0,0,1,.66.16,1.58,1.58,0,0,1,.45.52,3.67,3.67,0,0,0,1.66,2.05,6.51,6.51,0,0,0,3.53.83,7,7,0,0,0,3.85-.85,2.67,2.67,0,0,0,1.3-2.35,2.22,2.22,0,0,0-.67-1.66,5.61,5.61,0,0,0-2-1.12c-.88-.31-2.18-.69-3.91-1.15a14.94,14.94,0,0,1-6.21-2.68,6,6,0,0,1-2-4.77,6.29,6.29,0,0,1,1.14-3.71,7.47,7.47,0,0,1,3.27-2.55,12.27,12.27,0,0,1,5-.94,11.71,11.71,0,0,1,5.11,1,8.56,8.56,0,0,1,3.29,2.61,5.8,5.8,0,0,1,1.21,3.12.73.73,0,0,1-.76.75H487a1,1,0,0,1-1.05-.68,2.9,2.9,0,0,0-1.44-1.93,5.57,5.57,0,0,0-3-.77,5.67,5.67,0,0,0-3.17.76,2.68,2.68,0,0,0-.58,3.85,5,5,0,0,0,1.82,1.15,30.42,30.42,0,0,0,3.58,1.12,25,25,0,0,1,5.06,1.62,6.64,6.64,0,0,1,2.79,2.26,6.27,6.27,0,0,1,.9,3.5,6.53,6.53,0,0,1-1.28,4,7.92,7.92,0,0,1-3.6,2.61,14.72,14.72,0,0,1-5.34.9A14.1,14.1,0,0,1,476.16,429.68Z" transform="translate(-26 -101.5)"/><path class="cls-3" d="M501.54,430a.82.82,0,0,1-.25-.61V409.52h-6.66a.85.85,0,0,1-.61-.25.85.85,0,0,1-.26-.62V406a.92.92,0,0,1,.24-.65.79.79,0,0,1,.63-.25H513a.88.88,0,0,1,.65.25.92.92,0,0,1,.25.65v2.66a.89.89,0,0,1-.25.62.92.92,0,0,1-.65.25h-6.63v19.91a.82.82,0,0,1-.25.61.87.87,0,0,1-.65.25h-3.31A.82.82,0,0,1,501.54,430Z" transform="translate(-26 -101.5)"/><path class="cls-3" d="M512.83,430.07a.68.68,0,0,1-.24-.54l.07-.32L521.34,406a1.17,1.17,0,0,1,1.26-.9h3.92a1.23,1.23,0,0,1,1.26.9l8.68,23.22a1.19,1.19,0,0,1,0,.32.74.74,0,0,1-.22.54.68.68,0,0,1-.5.22h-3.14a1.05,1.05,0,0,1-.72-.22,1,1,0,0,1-.32-.46l-1.69-4.4h-10.7l-1.69,4.4a1,1,0,0,1-1,.68h-3.13A.7.7,0,0,1,512.83,430.07Zm15.82-9L524.54,410l-4.07,11.12Z" transform="translate(-26 -101.5)"/><path class="cls-3" d="M547.4,430a.82.82,0,0,1-.25-.61V406a1,1,0,0,1,.23-.65.82.82,0,0,1,.63-.25h2.78a1,1,0,0,1,.64.16,1.79,1.79,0,0,1,.4.42l10.37,16.12V406a1,1,0,0,1,.23-.65.82.82,0,0,1,.63-.25h3a.84.84,0,0,1,.64.25.89.89,0,0,1,.26.65v23.4a.89.89,0,0,1-.26.65.81.81,0,0,1-.61.25h-2.81a1.27,1.27,0,0,1-1-.58L551.94,414v15.48a.86.86,0,0,1-.25.63,1,1,0,0,1-.65.23h-3A.82.82,0,0,1,547.4,430Z" transform="translate(-26 -101.5)"/><path class="cls-3" d="M570.53,430.07a.71.71,0,0,1-.23-.54l.07-.32L579.05,406a1.16,1.16,0,0,1,1.26-.9h3.92a1.24,1.24,0,0,1,1.26.9l8.68,23.22a1.27,1.27,0,0,1,0,.32.73.73,0,0,1-.21.54.7.7,0,0,1-.51.22h-3.13a1.05,1.05,0,0,1-.72-.22.9.9,0,0,1-.32-.46l-1.7-4.4H576.92l-1.69,4.4a1,1,0,0,1-1,.68h-3.14A.74.74,0,0,1,570.53,430.07Zm15.82-9L582.25,410l-4.07,11.12Z" transform="translate(-26 -101.5)"/><path class="cls-3" d="M599.08,428.09a10,10,0,0,1-2.9-7.2c0-.64,0-1.7,0-3.16s0-2.57,0-3.24a9.91,9.91,0,0,1,2.94-7.19q2.75-2.57,7.65-2.57a13.26,13.26,0,0,1,5.58,1.1,8.84,8.84,0,0,1,3.67,3,7.84,7.84,0,0,1,1.37,4.26v.07a.6.6,0,0,1-.24.49.79.79,0,0,1-.52.2h-3.42a1,1,0,0,1-.65-.18,1.46,1.46,0,0,1-.36-.69,5.21,5.21,0,0,0-1.91-3.18,6.16,6.16,0,0,0-3.56-.92q-5.19,0-5.4,5.8c0,.64,0,1.64,0,3s0,2.37,0,3.06q.21,5.81,5.4,5.8a6.12,6.12,0,0,0,3.58-.94,5.12,5.12,0,0,0,1.89-3.16,1.17,1.17,0,0,1,.34-.69,1.09,1.09,0,0,1,.67-.18h3.42a.78.78,0,0,1,.56.22.63.63,0,0,1,.2.54,7.84,7.84,0,0,1-1.37,4.26,8.84,8.84,0,0,1-3.67,3,13.26,13.26,0,0,1-5.58,1.1Q601.79,430.65,599.08,428.09Z" transform="translate(-26 -101.5)"/><path class="cls-3" d="M621.92,430a.82.82,0,0,1-.25-.61V406a.82.82,0,0,1,.25-.63.89.89,0,0,1,.61-.23h3.39a.8.8,0,0,1,.86.86v23.48a.89.89,0,0,1-.23.61.82.82,0,0,1-.63.25h-3.39A.82.82,0,0,1,621.92,430Z" transform="translate(-26 -101.5)"/><path class="cls-3" d="M634.49,428.17q-2.75-2.49-2.88-7.38c0-.7,0-1.72,0-3.06s0-2.4,0-3.1a9.82,9.82,0,0,1,2.95-7.34,12.47,12.47,0,0,1,15.14,0q2.82,2.55,3,7.34c0,1.39.07,2.42.07,3.1s0,1.66-.07,3.06c-.12,3.26-1.1,5.72-2.92,7.38s-4.37,2.48-7.63,2.48S636.31,429.82,634.49,428.17ZM646,425.05a6.42,6.42,0,0,0,1.55-4.44c.05-1.44.07-2.42.07-2.92s0-1.52-.07-2.92a6.42,6.42,0,0,0-1.55-4.44,5.77,5.77,0,0,0-7.67,0,6.47,6.47,0,0,0-1.55,4.44c0,.7,0,1.67,0,2.92s0,2.2,0,2.92a6.56,6.56,0,0,0,1.53,4.44,5.79,5.79,0,0,0,7.69,0Z" transform="translate(-26 -101.5)"/><path class="cls-3" d="M657.71,430a.83.83,0,0,1-.26-.61V406a.92.92,0,0,1,.24-.65.79.79,0,0,1,.63-.25h2.77a1.08,1.08,0,0,1,.65.16,2,2,0,0,1,.39.42l10.37,16.12V406a.92.92,0,0,1,.24-.65.79.79,0,0,1,.63-.25h3a.86.86,0,0,1,.9.9v23.4a.88.88,0,0,1-.25.65.82.82,0,0,1-.61.25h-2.81a1.27,1.27,0,0,1-1-.58L662.24,414v15.48a.82.82,0,0,1-.25.63.94.94,0,0,1-.65.23h-3A.81.81,0,0,1,657.71,430Z" transform="translate(-26 -101.5)"/><path class="cls-3" d="M680.83,430.07a.71.71,0,0,1-.23-.54l.07-.32L689.35,406a1.17,1.17,0,0,1,1.26-.9h3.92a1.23,1.23,0,0,1,1.26.9l8.68,23.22a1.27,1.27,0,0,1,0,.32.73.73,0,0,1-.21.54.68.68,0,0,1-.5.22h-3.14a1.05,1.05,0,0,1-.72-.22,1,1,0,0,1-.32-.46l-1.69-4.4h-10.7l-1.69,4.4a1,1,0,0,1-1,.68h-3.13A.74.74,0,0,1,680.83,430.07Zm15.83-9L692.55,410l-4.07,11.12Z" transform="translate(-26 -101.5)"/><path class="cls-3" d="M708.1,430a.86.86,0,0,1-.25-.61V406a.86.86,0,0,1,.25-.63.91.91,0,0,1,.62-.23h3.34a.8.8,0,0,1,.87.86V426h11.41a.88.88,0,0,1,.65.25.87.87,0,0,1,.25.65v2.52a.82.82,0,0,1-.25.63,1,1,0,0,1-.65.23H708.72A.84.84,0,0,1,708.1,430Z" transform="translate(-26 -101.5)"/><path class="cls-3" d="M207,473.24a.82.82,0,0,1-.25-.61V449.19a.92.92,0,0,1,.24-.65.82.82,0,0,1,.62-.25h8.79q10.57,0,10.8,9.79c.05,1.39.07,2.33.07,2.81s0,1.38-.07,2.77q-.15,5-2.7,7.44t-7.92,2.39h-9A.82.82,0,0,1,207,473.24Zm9.4-3.89c2,0,3.47-.45,4.35-1.35s1.36-2.38,1.41-4.45c.05-1.44.07-2.34.07-2.7s0-1.27-.07-2.66a5.15,5.15,0,0,0-5.94-5.76h-4.47v16.92Z" transform="translate(-26 -101.5)"/><path class="cls-3" d="M232.28,473.24a.82.82,0,0,1-.25-.61V449.19a1,1,0,0,1,.23-.65.86.86,0,0,1,.63-.25h15.84a.91.91,0,0,1,.65.25.88.88,0,0,1,.25.65v2.38a.82.82,0,0,1-.25.63.94.94,0,0,1-.65.23H236.89v6.37h11.05a.92.92,0,0,1,.65.24.79.79,0,0,1,.25.63v2.23a.82.82,0,0,1-.25.63,1,1,0,0,1-.65.23H236.89v6.59H249a.86.86,0,0,1,.9.9v2.38a.82.82,0,0,1-.25.63,1,1,0,0,1-.65.23H232.89A.82.82,0,0,1,232.28,473.24Z" transform="translate(-26 -101.5)"/><path class="cls-3" d="M267.6,473.24a.83.83,0,0,1-.26-.61V452.72h-6.66a.86.86,0,0,1-.61-.25.84.84,0,0,1-.25-.62v-2.66a1,1,0,0,1,.23-.65.86.86,0,0,1,.63-.25H279a.91.91,0,0,1,.65.25.88.88,0,0,1,.25.65v2.66a.84.84,0,0,1-.25.62.91.91,0,0,1-.65.25h-6.62v19.91a.82.82,0,0,1-.25.61.88.88,0,0,1-.65.25h-3.31A.81.81,0,0,1,267.6,473.24Z" transform="translate(-26 -101.5)"/><path class="cls-3" d="M283.83,473.24a.82.82,0,0,1-.25-.61V449.19a1,1,0,0,1,.23-.65.86.86,0,0,1,.63-.25h9.33a10.54,10.54,0,0,1,6.89,2,7.11,7.11,0,0,1,2.5,5.83,7.35,7.35,0,0,1-1.27,4.41,7.18,7.18,0,0,1-3.55,2.58l5.26,9.18a.87.87,0,0,1,.1.39.68.68,0,0,1-.23.54.74.74,0,0,1-.52.22h-3.28a1.34,1.34,0,0,1-.88-.25,2.37,2.37,0,0,1-.56-.72L293.59,464h-5v8.64a.84.84,0,0,1-.23.61.82.82,0,0,1-.63.25h-3.28A.82.82,0,0,1,283.83,473.24Zm9.83-13.32a4.83,4.83,0,0,0,3.26-1,3.57,3.57,0,0,0,1.1-2.81,3.69,3.69,0,0,0-1.1-2.85,4.68,4.68,0,0,0-3.26-1h-5.08v7.63Z" transform="translate(-26 -101.5)"/><path class="cls-3" d="M308.06,473.24a.82.82,0,0,1-.25-.61V449.19a.91.91,0,0,1,.23-.65.86.86,0,0,1,.63-.25h15.84a.92.92,0,0,1,.65.25.88.88,0,0,1,.25.65v2.38a.82.82,0,0,1-.25.63,1,1,0,0,1-.65.23H312.67v6.37h11.05a.92.92,0,0,1,.65.24.83.83,0,0,1,.25.63v2.23a.86.86,0,0,1-.25.63,1,1,0,0,1-.65.23H312.67v6.59H324.8a.88.88,0,0,1,.65.25.92.92,0,0,1,.25.65v2.38a.86.86,0,0,1-.25.63,1,1,0,0,1-.65.23H308.67A.82.82,0,0,1,308.06,473.24Z" transform="translate(-26 -101.5)"/><path class="cls-3" d="M330.45,473.24a.82.82,0,0,1-.25-.61V449.19a1,1,0,0,1,.23-.65.86.86,0,0,1,.63-.25h2.78a1,1,0,0,1,.64.16,1.79,1.79,0,0,1,.4.42L345.25,465v-15.8a1,1,0,0,1,.23-.65.86.86,0,0,1,.63-.25h3a.87.87,0,0,1,.9.9v23.4a.89.89,0,0,1-.26.65.81.81,0,0,1-.61.25h-2.81a1.27,1.27,0,0,1-1-.58L335,457.15v15.48a.86.86,0,0,1-.25.63,1,1,0,0,1-.65.23h-3A.82.82,0,0,1,330.45,473.24Z" transform="translate(-26 -101.5)"/><path class="cls-3" d="M364.15,473.24a.83.83,0,0,1-.26-.61V449.19a.92.92,0,0,1,.24-.65.83.83,0,0,1,.63-.25h8.78q10.59,0,10.8,9.79c.05,1.39.07,2.33.07,2.81s0,1.38-.07,2.77q-.13,5-2.7,7.44t-7.92,2.39h-9A.81.81,0,0,1,364.15,473.24Zm9.39-3.89c2,0,3.47-.45,4.36-1.35s1.35-2.38,1.4-4.45c.05-1.44.07-2.34.07-2.7s0-1.27-.07-2.66a5.14,5.14,0,0,0-5.94-5.76H368.9v16.92Z" transform="translate(-26 -101.5)"/><path class="cls-3" d="M389.45,473.24a.86.86,0,0,1-.25-.61V449.19a.92.92,0,0,1,.24-.65.83.83,0,0,1,.63-.25h15.84a.87.87,0,0,1,.9.9v2.38a.83.83,0,0,1-.26.63.91.91,0,0,1-.64.23H394.06v6.37h11.05a.9.9,0,0,1,.65.24.79.79,0,0,1,.25.63v2.23a.82.82,0,0,1-.25.63.94.94,0,0,1-.65.23H394.06v6.59h12.13a.87.87,0,0,1,.65.25.88.88,0,0,1,.25.65v2.38a.82.82,0,0,1-.25.63.94.94,0,0,1-.65.23H390.07A.84.84,0,0,1,389.45,473.24Z" transform="translate(-26 -101.5)"/><path class="cls-3" d="M411.85,473.24a.83.83,0,0,1-.26-.61V449.15a.83.83,0,0,1,.26-.63.87.87,0,0,1,.61-.23h3.35a.8.8,0,0,1,.86.86v20.06h11.41a.86.86,0,0,1,.9.9v2.52a.82.82,0,0,1-.25.63.94.94,0,0,1-.65.23H412.46A.81.81,0,0,1,411.85,473.24Z" transform="translate(-26 -101.5)"/><path class="cls-3" d="M430.4,473.27a.71.71,0,0,1-.23-.54l.07-.32,8.68-23.22a1.16,1.16,0,0,1,1.26-.9h3.92a1.24,1.24,0,0,1,1.26.9L454,472.41a1.27,1.27,0,0,1,0,.32.73.73,0,0,1-.21.54.7.7,0,0,1-.51.22h-3.13a1.05,1.05,0,0,1-.72-.22.9.9,0,0,1-.32-.46l-1.69-4.4h-10.7l-1.69,4.4a1,1,0,0,1-1,.68h-3.14A.74.74,0,0,1,430.4,473.27Zm15.82-9-4.1-11.12-4.07,11.12Z" transform="translate(-26 -101.5)"/><path class="cls-3" d="M457.67,473.24a.82.82,0,0,1-.25-.61V449.19a.92.92,0,0,1,.24-.65.83.83,0,0,1,.63-.25h2.77a1.08,1.08,0,0,1,.65.16,2,2,0,0,1,.39.42L472.47,465v-15.8a1,1,0,0,1,.23-.65.86.86,0,0,1,.63-.25h3a.87.87,0,0,1,.9.9v23.4a.89.89,0,0,1-.26.65.81.81,0,0,1-.61.25h-2.81a1.27,1.27,0,0,1-1-.58l-10.33-15.76v15.48a.86.86,0,0,1-.25.63,1,1,0,0,1-.65.23h-3A.83.83,0,0,1,457.67,473.24Z" transform="translate(-26 -101.5)"/><path class="cls-3" d="M488.67,473.24a.82.82,0,0,1-.25-.61V452.72h-6.66a.85.85,0,0,1-.87-.87v-2.66a.92.92,0,0,1,.24-.65.83.83,0,0,1,.63-.25h18.36a.87.87,0,0,1,.9.9v2.66a.85.85,0,0,1-.26.62.88.88,0,0,1-.64.25h-6.63v19.91a.82.82,0,0,1-.25.61.87.87,0,0,1-.65.25h-3.31A.82.82,0,0,1,488.67,473.24Z" transform="translate(-26 -101.5)"/><path class="cls-3" d="M504.9,473.24a.86.86,0,0,1-.25-.61V449.19a.92.92,0,0,1,.24-.65.83.83,0,0,1,.63-.25h15.84a.87.87,0,0,1,.9.9v2.38a.83.83,0,0,1-.26.63.91.91,0,0,1-.64.23H509.51v6.37h11a.9.9,0,0,1,.65.24.79.79,0,0,1,.25.63v2.23a.82.82,0,0,1-.25.63.94.94,0,0,1-.65.23h-11v6.59h12.13a.87.87,0,0,1,.65.25.88.88,0,0,1,.25.65v2.38a.82.82,0,0,1-.25.63.94.94,0,0,1-.65.23H505.52A.84.84,0,0,1,504.9,473.24Z" transform="translate(-26 -101.5)"/><path class="cls-3" d="M527.3,473.24a.83.83,0,0,1-.26-.61V449.19a.92.92,0,0,1,.24-.65.83.83,0,0,1,.63-.25h9.32a10.57,10.57,0,0,1,6.9,2,7.14,7.14,0,0,1,2.5,5.83,7.35,7.35,0,0,1-1.28,4.41,7.09,7.09,0,0,1-3.55,2.58l5.26,9.18a.89.89,0,0,1,.11.39.68.68,0,0,1-.24.54.72.72,0,0,1-.52.22h-3.27a1.37,1.37,0,0,1-.89-.25,2.35,2.35,0,0,1-.55-.72L537.05,464h-5v8.64a.85.85,0,0,1-.24.61.79.79,0,0,1-.63.25h-3.27A.81.81,0,0,1,527.3,473.24Zm9.82-13.32a4.83,4.83,0,0,0,3.26-1,3.57,3.57,0,0,0,1.1-2.81,3.69,3.69,0,0,0-1.1-2.85,4.68,4.68,0,0,0-3.26-1h-5.07v7.63Z" transform="translate(-26 -101.5)"/><path class="cls-3" d="M553.25,471.37q-2.73-2.49-2.88-7.38,0-1,0-3.06c0-1.37,0-2.4,0-3.1q.15-4.79,3-7.34a12.47,12.47,0,0,1,15.14,0c1.89,1.7,2.87,4.15,3,7.34.05,1.39.07,2.42.07,3.1s0,1.66-.07,3.06q-.18,4.89-2.91,7.38c-1.83,1.65-4.37,2.48-7.64,2.48S555.08,473,553.25,471.37Zm11.49-3.12a6.42,6.42,0,0,0,1.54-4.44c.05-1.44.08-2.42.08-2.92s0-1.52-.08-2.92a6.42,6.42,0,0,0-1.54-4.44,5.19,5.19,0,0,0-3.86-1.46,5.12,5.12,0,0,0-3.81,1.46,6.42,6.42,0,0,0-1.55,4.44c0,.7,0,1.67,0,2.92s0,2.2,0,2.92a6.46,6.46,0,0,0,1.53,4.44,5.12,5.12,0,0,0,3.83,1.46A5.19,5.19,0,0,0,564.74,468.25Z" transform="translate(-26 -101.5)"/><path class="cls-4" d="M321,323c.5-1.5-6.5-5.5-7.5-7.5S312,312,313,311s8-6,8-7-1-52,.5-57.5S330,231,343,233s48,16,50.5,26.5-4,19-7.5,22.5-47.5,24.5-46.5,26.5,11,12,24,22,22,19,25,19,2-3,3-4,5-5,4-6-4-5-4-8,4-7,7-6c4-4,34-30,36-31s9-6.6,13-3.3c4,3.6,1,8.3,1,8.3s-38,36-39,38-1,5,7-2,21-19,26-19,4,2,4,4-1,17,4,18,17-16,22-21,19-19,23-19,4,5,2,14-3,15,6,5,22-23,26-23,5,1,4,11-11,32,3,16,18-10,19-8,8,12,6,9,9,16,12,10,5-7,8-8,25-24,26-26,8-3,9-1-3,5.09,1,5,9-3,15,0,7,8,6,14-7.87,16-4,17,9-6,21-18,21-21,24-22,10-1,10,4-7,35-7,35-5.57,18,2.71,7,10.29-8,11.29-4,1,5,1,6-30,23-33,22-6-14-6-21,3-8,6-7,5,7,5,2,4-21,2-23-22,15-29,24c-8,8-10,11-14,11s-6-5-7-4-9,11-16,11-15,0-18-5-4-11-1-16c0-3-.61-5-8.8,3.5s-7.2,8.5-15.2,5.5-12-15-17-15-16,10-22,19-9,9-10,9-6-1-3-10,8-24,5-27-35,33-36,34-9,4-4-12,6-20,1-16-22,26-29,26-12-2-14-10,1-10-1-9-23,22-27,23-7-1-7,2,1,7-1,9-55-32-59-35-7-7-9,9-2,21-7,19-5-6-5-8S320.5,324.5,321,323Z" transform="translate(-26 -101.5)"/><path class="cls-1" d="M330.5,263.5s-3-9,4-11,25,1,34,7,12,10,7,15-39,32-39,21c6-28,8-27,6-30s-4-5-6-4S332.5,266.5,330.5,263.5Z" transform="translate(-26 -101.5)"/><path class="cls-5" d="M602.5,344.5c7,2,17-5,21-13s2-16-3-15-7,2-11,8c0,1-2,1-4,2S595.5,342.5,602.5,344.5Z" transform="translate(-26 -101.5)"/></g><g id="auto"><path class="cls-6" d="M169.5,227.5s61,5,65,8,18,31,18,31l2.4,11,4.6,21v26.07h-90Z" transform="translate(-26 -101.5)"/><path class="cls-7" d="M259.5,268.5c3-1,16.39-1,17.2,0s1.8,14,.8,15-22,8-22,8l-3-14s4,0,5-3S256.5,269.5,259.5,268.5Z" transform="translate(-26 -101.5)"/><ellipse class="cls-8" cx="209" cy="214.5" rx="13" ry="9"/><path class="cls-1" d="M232.26,240.43C233.5,241.6,243.13,262,244.12,264c0,2,2,13.86,0,14.72s-74.59-.4-74.59-.4L169,236.5S231,239.25,232.26,240.43Z" transform="translate(-26 -101.5)"/><path class="cls-1" d="M143.5,201h43a2,2,0,0,1,2,2v4a2,2,0,0,1-2,2h-43a0,0,0,0,1,0,0v-8A0,0,0,0,1,143.5,201Z"/><path class="cls-1" d="M143.5,219h44a2,2,0,0,1,2,2v3a0,0,0,0,1,0,0h-46a0,0,0,0,1,0,0v-5A0,0,0,0,1,143.5,219Z"/><path class="cls-9" d="M52.5,226h181a0,0,0,0,1,0,0v8a7,7,0,0,1-7,7H59.5a7,7,0,0,1-7-7v-8A0,0,0,0,1,52.5,226Z"/><rect class="cls-9" x="64.5" y="244" width="32" height="28" rx="2.29"/><rect class="cls-9" x="192.5" y="244" width="32" height="28" rx="2.29"/><circle class="cls-8" cx="89" cy="241.5" r="8.5"/><circle class="cls-8" cx="191" cy="242.5" r="8.5"/><path class="cls-10" d="M168.85,227.5s-61,5-65,8-18,31-18,31l-2.4,11-4.6,21v26.07h90Z" transform="translate(-26 -101.5)"/><path class="cls-7" d="M78.85,268.5c-3-1-16.39-1-17.2,0s-1.8,14-.8,15,22,8,22,8l3-14s-4,0-5-3S81.85,269.5,78.85,268.5Z" transform="translate(-26 -101.5)"/><ellipse class="cls-8" cx="78" cy="214.5" rx="13" ry="9"/><path class="cls-1" d="M106.2,240.43c-1.25,1.17-11,21.59-12,23.55,0,2-2,13.86,0,14.72s75.22-.4,75.22-.4l.54-41.8S107.45,239.25,106.2,240.43Z" transform="translate(-26 -101.5)"/><path class="cls-1" d="M123.85,302.5H168a2,2,0,0,1,2,2v4a2,2,0,0,1-2,2H123.85a0,0,0,0,1,0,0v-8a0,0,0,0,1,0,0Z" transform="translate(267.85 511.5) rotate(180)"/><path class="cls-1" d="M122.85,320.5H169a1,1,0,0,1,1,1v2a2,2,0,0,1-2,2H122.85a0,0,0,0,1,0,0v-5A0,0,0,0,1,122.85,320.5Z" transform="translate(266.85 544.5) rotate(180)"/></g></svg>